<?xml version="1.0" encoding="UTF-8" standalone="no"?>
<svg xmlns="http://www.w3.org/2000/svg" xmlns:xlink="http://www.w3.org/1999/xlink" contentScriptType="application/ecmascript" contentStyleType="text/css" height="299px" preserveAspectRatio="none" style="width:1520px;height:299px;" version="1.1" viewBox="0 0 1520 299" width="1520px" zoomAndPan="magnify"><defs><filter height="300%" id="fazxe872kt8v2" width="300%" x="-1" y="-1"><feGaussianBlur result="blurOut" stdDeviation="2.0"/><feColorMatrix in="blurOut" result="blurOut2" type="matrix" values="0 0 0 0 0 0 0 0 0 0 0 0 0 0 0 0 0 0 .4 0"/><feOffset dx="4.0" dy="4.0" in="blurOut2" result="blurOut3"/><feBlend in="SourceGraphic" in2="blurOut3" mode="normal"/></filter></defs><g><!--MD5=[97d660ed37b88e90cdf681d54249f8e7]
cluster org.alfresco.service.cmr.repository--><polygon fill="#FFFFFF" filter="url(#fazxe872kt8v2)" points="16,6,307,6,314,28.2969,891,28.2969,891,143,16,143,16,6" style="stroke: #000000; stroke-width: 1.5;"/><line style="stroke: #000000; stroke-width: 1.5;" x1="16" x2="314" y1="28.2969" y2="28.2969"/><text fill="#000000" font-family="sans-serif" font-size="14" font-weight="bold" lengthAdjust="spacingAndGlyphs" textLength="285" x="20" y="20.9951">org.alfresco.service.cmr.repository</text><!--MD5=[b25b3355f637a48e6043a8858f79a511]
cluster org.aflresco.repo.content--><polygon fill="#FFFFFF" filter="url(#fazxe872kt8v2)" points="16,167,230,167,237,189.2969,1503,189.2969,1503,292,16,292,16,167" style="stroke: #000000; stroke-width: 1.5;"/><line style="stroke: #000000; stroke-width: 1.5;" x1="16" x2="237" y1="189.2969" y2="189.2969"/><text fill="#000000" font-family="sans-serif" font-size="14" font-weight="bold" lengthAdjust="spacingAndGlyphs" textLength="208" x="20" y="181.9951">org.aflresco.repo.content</text><!--MD5=[3e05c0d610539afa07c398e97ec8efcf]
class DirectAccessUrl--><rect codeLine="2" fill="#FEFECE" filter="url(#fazxe872kt8v2)" height="86.4141" id="DirectAccessUrl" style="stroke: #A80036; stroke-width: 1.5;" width="144" x="731" y="41"/><ellipse cx="752.75" cy="57" fill="#ADD1B2" rx="11" ry="11" style="stroke: #A80036; stroke-width: 1.0;"/><path d="M755.0938,52.6719 C754.1563,52.2344 753.5625,52.0938 752.6875,52.0938 C750.0625,52.0938 748.0625,54.1719 748.0625,56.8906 L748.0625,58.0156 C748.0625,60.5938 750.1719,62.4844 753.0625,62.4844 C754.2813,62.4844 755.4375,62.1875 756.1875,61.6406 C756.7656,61.2344 757.0938,60.7813 757.0938,60.3906 C757.0938,59.9375 756.7031,59.5469 756.2344,59.5469 C756.0156,59.5469 755.8125,59.625 755.625,59.8125 C755.1719,60.2969 755.1719,60.2969 754.9844,60.3906 C754.5625,60.6563 753.875,60.7813 753.1094,60.7813 C751.0625,60.7813 749.7656,59.6875 749.7656,57.9844 L749.7656,56.8906 C749.7656,55.1094 751.0156,53.7969 752.75,53.7969 C753.3281,53.7969 753.9375,53.9531 754.4063,54.2031 C754.8906,54.4844 755.0625,54.7031 755.1563,55.1094 C755.2188,55.5156 755.25,55.6406 755.3906,55.7656 C755.5313,55.9063 755.7656,56.0156 755.9844,56.0156 C756.25,56.0156 756.5156,55.875 756.6875,55.6563 C756.7969,55.5 756.8281,55.3125 756.8281,54.8906 L756.8281,53.4688 C756.8281,53.0313 756.8125,52.9063 756.7188,52.75 C756.5625,52.4844 756.2813,52.3438 755.9844,52.3438 C755.6875,52.3438 755.4844,52.4375 755.2656,52.75 L755.0938,52.6719 Z " fill="#000000"/><text fill="#000000" font-family="sans-serif" font-size="12" lengthAdjust="spacingAndGlyphs" textLength="97" x="768.25" y="61.1543">DirectAccessUrl</text><line style="stroke: #A80036; stroke-width: 1.5;" x1="732" x2="874" y1="73" y2="73"/><rect fill="none" height="6" style="stroke: #C82930; stroke-width: 1.0;" width="6" x="739" y="81"/><text fill="#000000" font-family="sans-serif" font-size="11" lengthAdjust="spacingAndGlyphs" textLength="54" x="751" y="87.2104">url: String</text><rect fill="none" height="6" style="stroke: #C82930; stroke-width: 1.0;" width="6" x="739" y="93.8047"/><text fill="#000000" font-family="sans-serif" font-size="11" lengthAdjust="spacingAndGlyphs" textLength="100" x="751" y="100.0151">expiryTime: Date</text><rect fill="none" height="6" style="stroke: #C82930; stroke-width: 1.0;" width="6" x="739" y="106.6094"/><text fill="#000000" font-family="sans-serif" font-size="11" lengthAdjust="spacingAndGlyphs" textLength="118" x="751" y="112.8198">attachment: boolean</text><line style="stroke: #A80036; stroke-width: 1.5;" x1="732" x2="874" y1="119.4141" y2="119.4141"/><!--MD5=[084445e2f07b50279f4b2223390185b4]
class ContentService--><rect codeLine="8" fill="#FEFECE" filter="url(#fazxe872kt8v2)" height="73.6094" id="ContentService" style="stroke: #A80036; stroke-width: 1.5;" width="663" x="32.5" y="47"/><ellipse cx="313.75" cy="63" fill="#B4A7E5" rx="11" ry="11" style="stroke: #A80036; stroke-width: 1.0;"/><path d="M314.7031,59.7813 L316.4219,59.7813 C316.8125,59.7813 317,59.75 317.125,59.6719 C317.3906,59.5156 317.5313,59.2344 317.5313,58.9375 C317.5313,58.6719 317.4219,58.4063 317.1875,58.2344 C317.0156,58.125 316.875,58.0938 316.4219,58.0938 L311.2813,58.0938 C310.8438,58.0938 310.7188,58.1094 310.5625,58.2031 C310.3125,58.3594 310.1563,58.6563 310.1563,58.9375 C310.1563,59.2188 310.2969,59.4688 310.5156,59.6406 C310.6719,59.75 310.8594,59.7813 311.2813,59.7813 L313,59.7813 L313,66.2969 L311.2813,66.2969 C310.8438,66.2969 310.7188,66.3125 310.5625,66.4219 C310.3125,66.5781 310.1563,66.8594 310.1563,67.1563 C310.1563,67.4063 310.2969,67.6719 310.5156,67.8281 C310.6719,67.9531 310.875,68 311.2813,68 L316.4219,68 C317.1719,68 317.5313,67.7188 317.5313,67.1563 C317.5313,66.875 317.4219,66.625 317.1875,66.4531 C317.0156,66.3281 316.875,66.2969 316.4219,66.2969 L314.7031,66.2969 L314.7031,59.7813 Z " fill="#000000"/><text fill="#000000" font-family="sans-serif" font-size="12" font-style="italic" lengthAdjust="spacingAndGlyphs" textLength="92" x="334.25" y="67.1543">ContentService</text><line style="stroke: #A80036; stroke-width: 1.5;" x1="33.5" x2="694.5" y1="79" y2="79"/><line style="stroke: #A80036; stroke-width: 1.5;" x1="33.5" x2="694.5" y1="87" y2="87"/><ellipse cx="43.5" cy="98" fill="#84BE84" rx="3" ry="3" style="stroke: #038048; stroke-width: 1.0;"/><text fill="#000000" font-family="sans-serif" font-size="11" font-style="italic" lengthAdjust="spacingAndGlyphs" textLength="208" x="52.5" y="101.2104">isContentDirectUrlEnabled(): boolean</text><ellipse cx="43.5" cy="110.8047" fill="#84BE84" rx="3" ry="3" style="stroke: #038048; stroke-width: 1.0;"/><text fill="#000000" font-family="sans-serif" font-size="11" font-style="italic" lengthAdjust="spacingAndGlyphs" textLength="637" x="52.5" y="114.0151">requestContentDirectUrl(nodeRef: NodeRef, attachment: boolean, validForOp: Optional&lt;Long&gt;): DirectAccessUrl</text><!--MD5=[568fa235e6e0a48244f3c15a0fa5c732]
class ContentServiceImpl--><rect codeLine="14" fill="#FEFECE" filter="url(#fazxe872kt8v2)" height="73.6094" id="ContentServiceImpl" style="stroke: #A80036; stroke-width: 1.5;" width="663" x="32.5" y="202"/><ellipse cx="301.25" cy="218" fill="#ADD1B2" rx="11" ry="11" style="stroke: #A80036; stroke-width: 1.0;"/><path d="M303.5938,213.6719 C302.6563,213.2344 302.0625,213.0938 301.1875,213.0938 C298.5625,213.0938 296.5625,215.1719 296.5625,217.8906 L296.5625,219.0156 C296.5625,221.5938 298.6719,223.4844 301.5625,223.4844 C302.7813,223.4844 303.9375,223.1875 304.6875,222.6406 C305.2656,222.2344 305.5938,221.7813 305.5938,221.3906 C305.5938,220.9375 305.2031,220.5469 304.7344,220.5469 C304.5156,220.5469 304.3125,220.625 304.125,220.8125 C303.6719,221.2969 303.6719,221.2969 303.4844,221.3906 C303.0625,221.6563 302.375,221.7813 301.6094,221.7813 C299.5625,221.7813 298.2656,220.6875 298.2656,218.9844 L298.2656,217.8906 C298.2656,216.1094 299.5156,214.7969 301.25,214.7969 C301.8281,214.7969 302.4375,214.9531 302.9063,215.2031 C303.3906,215.4844 303.5625,215.7031 303.6563,216.1094 C303.7188,216.5156 303.75,216.6406 303.8906,216.7656 C304.0313,216.9063 304.2656,217.0156 304.4844,217.0156 C304.75,217.0156 305.0156,216.875 305.1875,216.6563 C305.2969,216.5 305.3281,216.3125 305.3281,215.8906 L305.3281,214.4688 C305.3281,214.0313 305.3125,213.9063 305.2188,213.75 C305.0625,213.4844 304.7813,213.3438 304.4844,213.3438 C304.1875,213.3438 303.9844,213.4375 303.7656,213.75 L303.5938,213.6719 Z " fill="#000000"/><text fill="#000000" font-family="sans-serif" font-size="12" lengthAdjust="spacingAndGlyphs" textLength="117" x="321.75" y="222.1543">ContentServiceImpl</text><line style="stroke: #A80036; stroke-width: 1.5;" x1="33.5" x2="694.5" y1="234" y2="234"/><line style="stroke: #A80036; stroke-width: 1.5;" x1="33.5" x2="694.5" y1="242" y2="242"/><ellipse cx="43.5" cy="253" fill="#84BE84" rx="3" ry="3" style="stroke: #038048; stroke-width: 1.0;"/><text fill="#000000" font-family="sans-serif" font-size="11" lengthAdjust="spacingAndGlyphs" textLength="210" x="52.5" y="256.2104">isContentDirectUrlEnabled(): boolean</text><ellipse cx="43.5" cy="265.8047" fill="#84BE84" rx="3" ry="3" style="stroke: #038048; stroke-width: 1.0;"/><text fill="#000000" font-family="sans-serif" font-size="11" lengthAdjust="spacingAndGlyphs" textLength="637" x="52.5" y="269.0151">requestContentDirectUrl(nodeRef: NodeRef, attachment: boolean, validForOp: Optional&lt;Long&gt;): DirectAccessUrl</text><!--MD5=[fb0b1c9cf73cb0624095f35e538a39af]
class ContentStore--><rect codeLine="18" fill="#FEFECE" filter="url(#fazxe872kt8v2)" height="73.6094" id="ContentStore" style="stroke: #A80036; stroke-width: 1.5;" width="756" x="731" y="202"/><ellipse cx="1064.75" cy="218" fill="#B4A7E5" rx="11" ry="11" style="stroke: #A80036; stroke-width: 1.0;"/><path d="M1065.7031,214.7813 L1067.4219,214.7813 C1067.8125,214.7813 1068,214.75 1068.125,214.6719 C1068.3906,214.5156 1068.5313,214.2344 1068.5313,213.9375 C1068.5313,213.6719 1068.4219,213.4063 1068.1875,213.2344 C1068.0156,213.125 1067.875,213.0938 1067.4219,213.0938 L1062.2813,213.0938 C1061.8438,213.0938 1061.7188,213.1094 1061.5625,213.2031 C1061.3125,213.3594 1061.1563,213.6563 1061.1563,213.9375 C1061.1563,214.2188 1061.2969,214.4688 1061.5156,214.6406 C1061.6719,214.75 1061.8594,214.7813 1062.2813,214.7813 L1064,214.7813 L1064,221.2969 L1062.2813,221.2969 C1061.8438,221.2969 1061.7188,221.3125 1061.5625,221.4219 C1061.3125,221.5781 1061.1563,221.8594 1061.1563,222.1563 C1061.1563,222.4063 1061.2969,222.6719 1061.5156,222.8281 C1061.6719,222.9531 1061.875,223 1062.2813,223 L1067.4219,223 C1068.1719,223 1068.5313,222.7188 1068.5313,222.1563 C1068.5313,221.875 1068.4219,221.625 1068.1875,221.4531 C1068.0156,221.3281 1067.875,221.2969 1067.4219,221.2969 L1065.7031,221.2969 L1065.7031,214.7813 Z " fill="#000000"/><text fill="#000000" font-family="sans-serif" font-size="12" font-style="italic" lengthAdjust="spacingAndGlyphs" textLength="80" x="1085.25" y="222.1543">ContentStore</text><line style="stroke: #A80036; stroke-width: 1.5;" x1="732" x2="1486" y1="234" y2="234"/><line style="stroke: #A80036; stroke-width: 1.5;" x1="732" x2="1486" y1="242" y2="242"/><ellipse cx="742" cy="253" fill="#84BE84" rx="3" ry="3" style="stroke: #038048; stroke-width: 1.0;"/><text fill="#000000" font-family="sans-serif" font-size="11" lengthAdjust="spacingAndGlyphs" textLength="730" x="751" y="256.2104">requestContentDirectUrl(contentUrl: String, attachment: boolean, fileName: String, validForOp: Optional&lt;Long&gt;): DirectAccessUrl</text><ellipse cx="742" cy="265.8047" fill="#84BE84" rx="3" ry="3" style="stroke: #038048; stroke-width: 1.0;"/><text fill="#000000" font-family="sans-serif" font-size="11" lengthAdjust="spacingAndGlyphs" textLength="203" x="751" y="269.0151">isDirectAccessSupported(): boolean</text><!--MD5=[6e5e732ba1812188aa977f876699719d]
reverse link ContentService to ContentServiceImpl--><path codeLine="23" d="M364,141.305 C364,161.492 364,183.7 364,201.737 " fill="none" id="ContentService-backto-ContentServiceImpl" style="stroke: #A80036; stroke-width: 1.0;"/><polygon fill="none" points="357,141.259,364,121.259,371,141.259,357,141.259" style="stroke: #A80036; stroke-width: 1.0;"/><!--MD5=[9e5b8f45ddd1a451219279a34afc1119]
link ContentServiceImpl to ContentStore--><!--MD5=[7ab125865f7208660697fb0288cd4d65]
@startuml
package org.alfresco.service.cmr.repository {
    class DirectAccessUrl {
        -url: String
        -expiryTime: Date
        -attachment: boolean
    }

    interface ContentService {
        {abstract} +isContentDirectUrlEnabled(): boolean
        {abstract} +requestContentDirectUrl(nodeRef: NodeRef, attachment: boolean, validForOp: Optional<Long>): DirectAccessUrl
    }
}
package org.aflresco.repo.content {
    class ContentServiceImpl {
        +isContentDirectUrlEnabled(): boolean
        +requestContentDirectUrl(nodeRef: NodeRef, attachment: boolean, validForOp: Optional<Long>): DirectAccessUrl
    }
    interface ContentStore {
        +requestContentDirectUrl(contentUrl: String, attachment: boolean, fileName: String, validForOp: Optional<Long>): DirectAccessUrl
        +isDirectAccessSupported(): boolean
    }
}
ContentService <|- - ContentServiceImpl
ContentServiceImpl -[hidden]> ContentStore
@enduml

PlantUML version 1.2020.20beta13(Unknown compile time)
(GPL source distribution)
Java Runtime: Java(TM) SE Runtime Environment
JVM: Java HotSpot(TM) 64-Bit Server VM
Default Encoding: UTF-8
Language: en
Country: US
--></g></svg>