<?xml version="1.0" encoding="UTF-8" standalone="no"?>
<svg xmlns="http://www.w3.org/2000/svg" xmlns:xlink="http://www.w3.org/1999/xlink" contentScriptType="application/ecmascript" contentStyleType="text/css" height="210px" preserveAspectRatio="none" style="width:1631px;height:210px;" version="1.1" viewBox="0 0 1631 210" width="1631px" zoomAndPan="magnify"><defs><filter height="300%" id="f8dl6akh2dy29" width="300%" x="-1" y="-1"><feGaussianBlur result="blurOut" stdDeviation="2.0"/><feColorMatrix in="blurOut" result="blurOut2" type="matrix" values="0 0 0 0 0 0 0 0 0 0 0 0 0 0 0 0 0 0 .4 0"/><feOffset dx="4.0" dy="4.0" in="blurOut2" result="blurOut3"/><feBlend in="SourceGraphic" in2="blurOut3" mode="normal"/></filter></defs><g><!--MD5=[30f4146031c8d02ec39a0a3f72601e8b]
cluster org.alfresco.rest.api.nodes--><polygon fill="#FFFFFF" filter="url(#f8dl6akh2dy29)" points="16,6,241,6,248,28.2969,1614,28.2969,1614,203,16,203,16,6" style="stroke: #000000; stroke-width: 1.5;"/><line style="stroke: #000000; stroke-width: 1.5;" x1="16" x2="248" y1="28.2969" y2="28.2969"/><text fill="#000000" font-family="sans-serif" font-size="14" font-weight="bold" lengthAdjust="spacingAndGlyphs" textLength="219" x="20" y="20.9951">org.alfresco.rest.api.nodes</text><!--MD5=[6b9b5772b538ed180899c86c76ea78c6]
class NodeVersionRelation--><rect codeLine="3" fill="#FEFECE" filter="url(#f8dl6akh2dy29)" height="60.8047" id="NodeVersionRelation" style="stroke: #A80036; stroke-width: 1.5;" width="765" x="32.5" y="126"/><ellipse cx="348.25" cy="142" fill="#ADD1B2" rx="11" ry="11" style="stroke: #A80036; stroke-width: 1.0;"/><path d="M350.5938,137.6719 C349.6563,137.2344 349.0625,137.0938 348.1875,137.0938 C345.5625,137.0938 343.5625,139.1719 343.5625,141.8906 L343.5625,143.0156 C343.5625,145.5938 345.6719,147.4844 348.5625,147.4844 C349.7813,147.4844 350.9375,147.1875 351.6875,146.6406 C352.2656,146.2344 352.5938,145.7813 352.5938,145.3906 C352.5938,144.9375 352.2031,144.5469 351.7344,144.5469 C351.5156,144.5469 351.3125,144.625 351.125,144.8125 C350.6719,145.2969 350.6719,145.2969 350.4844,145.3906 C350.0625,145.6563 349.375,145.7813 348.6094,145.7813 C346.5625,145.7813 345.2656,144.6875 345.2656,142.9844 L345.2656,141.8906 C345.2656,140.1094 346.5156,138.7969 348.25,138.7969 C348.8281,138.7969 349.4375,138.9531 349.9063,139.2031 C350.3906,139.4844 350.5625,139.7031 350.6563,140.1094 C350.7188,140.5156 350.75,140.6406 350.8906,140.7656 C351.0313,140.9063 351.2656,141.0156 351.4844,141.0156 C351.75,141.0156 352.0156,140.875 352.1875,140.6563 C352.2969,140.5 352.3281,140.3125 352.3281,139.8906 L352.3281,138.4688 C352.3281,138.0313 352.3125,137.9063 352.2188,137.75 C352.0625,137.4844 351.7813,137.3438 351.4844,137.3438 C351.1875,137.3438 350.9844,137.4375 350.7656,137.75 L350.5938,137.6719 Z " fill="#000000"/><text fill="#000000" font-family="sans-serif" font-size="12" lengthAdjust="spacingAndGlyphs" textLength="125" x="368.75" y="146.1543">NodeVersionRelation</text><line style="stroke: #A80036; stroke-width: 1.5;" x1="33.5" x2="796.5" y1="158" y2="158"/><line style="stroke: #A80036; stroke-width: 1.5;" x1="33.5" x2="796.5" y1="166" y2="166"/><ellipse cx="43.5" cy="177" fill="#84BE84" rx="3" ry="3" style="stroke: #038048; stroke-width: 1.0;"/><text fill="#000000" font-family="sans-serif" font-size="11" lengthAdjust="spacingAndGlyphs" textLength="739" x="52.5" y="180.2104">requestContentDirectUrl(nodeId: String, versionId: String, parameters: Parameters, withResponse: WithResponse): DirectAccessUrl</text><path d="M169,41 L169,66.1328 A0,0 0 0 0 169,66.1328 L411,66.1328 L415,125.9981 L419,66.1328 L661,66.1328 A0,0 0 0 0 661,66.1328 L661,51 L651,41 L169,41 A0,0 0 0 0 169,41 " fill="#FBFB77" filter="url(#f8dl6akh2dy29)" style="stroke: #A80036; stroke-width: 1.0;"/><path d="M651,41 L651,51 L661,51 L651,41 " fill="#FBFB77" style="stroke: #A80036; stroke-width: 1.0;"/><text fill="#000000" font-family="sans-serif" font-size="13" lengthAdjust="spacingAndGlyphs" textLength="471" x="175" y="58.0669">REST API /nodes/{nodeId}/versions/{versionId}/request-direct-access-url</text><!--MD5=[48debfaadbe349206a385e0559a820a1]
class NodeVersionRenditionsRelation--><rect codeLine="8" fill="#FEFECE" filter="url(#f8dl6akh2dy29)" height="60.8047" id="NodeVersionRenditionsRelation" style="stroke: #A80036; stroke-width: 1.5;" width="765" x="832.5" y="126"/><ellipse cx="1117.25" cy="142" fill="#ADD1B2" rx="11" ry="11" style="stroke: #A80036; stroke-width: 1.0;"/><path d="M1119.5938,137.6719 C1118.6563,137.2344 1118.0625,137.0938 1117.1875,137.0938 C1114.5625,137.0938 1112.5625,139.1719 1112.5625,141.8906 L1112.5625,143.0156 C1112.5625,145.5938 1114.6719,147.4844 1117.5625,147.4844 C1118.7813,147.4844 1119.9375,147.1875 1120.6875,146.6406 C1121.2656,146.2344 1121.5938,145.7813 1121.5938,145.3906 C1121.5938,144.9375 1121.2031,144.5469 1120.7344,144.5469 C1120.5156,144.5469 1120.3125,144.625 1120.125,144.8125 C1119.6719,145.2969 1119.6719,145.2969 1119.4844,145.3906 C1119.0625,145.6563 1118.375,145.7813 1117.6094,145.7813 C1115.5625,145.7813 1114.2656,144.6875 1114.2656,142.9844 L1114.2656,141.8906 C1114.2656,140.1094 1115.5156,138.7969 1117.25,138.7969 C1117.8281,138.7969 1118.4375,138.9531 1118.9063,139.2031 C1119.3906,139.4844 1119.5625,139.7031 1119.6563,140.1094 C1119.7188,140.5156 1119.75,140.6406 1119.8906,140.7656 C1120.0313,140.9063 1120.2656,141.0156 1120.4844,141.0156 C1120.75,141.0156 1121.0156,140.875 1121.1875,140.6563 C1121.2969,140.5 1121.3281,140.3125 1121.3281,139.8906 L1121.3281,138.4688 C1121.3281,138.0313 1121.3125,137.9063 1121.2188,137.75 C1121.0625,137.4844 1120.7813,137.3438 1120.4844,137.3438 C1120.1875,137.3438 1119.9844,137.4375 1119.7656,137.75 L1119.5938,137.6719 Z " fill="#000000"/><text fill="#000000" font-family="sans-serif" font-size="12" lengthAdjust="spacingAndGlyphs" textLength="187" x="1137.75" y="146.1543">NodeVersionRenditionsRelation</text><line style="stroke: #A80036; stroke-width: 1.5;" x1="833.5" x2="1596.5" y1="158" y2="158"/><line style="stroke: #A80036; stroke-width: 1.5;" x1="833.5" x2="1596.5" y1="166" y2="166"/><ellipse cx="843.5" cy="177" fill="#84BE84" rx="3" ry="3" style="stroke: #038048; stroke-width: 1.0;"/><text fill="#000000" font-family="sans-serif" font-size="11" lengthAdjust="spacingAndGlyphs" textLength="739" x="852.5" y="180.2104">requestContentDirectUrl(nodeId: String, versionId: String, parameters: Parameters, withResponse: WithResponse): DirectAccessUrl</text><path d="M891,41 L891,66.1328 A0,0 0 0 0 891,66.1328 L1211,66.1328 L1215,125.9981 L1219,66.1328 L1539,66.1328 A0,0 0 0 0 1539,66.1328 L1539,51 L1529,41 L891,41 A0,0 0 0 0 891,41 " fill="#FBFB77" filter="url(#f8dl6akh2dy29)" style="stroke: #A80036; stroke-width: 1.0;"/><path d="M1529,41 L1529,51 L1539,51 L1529,41 " fill="#FBFB77" style="stroke: #A80036; stroke-width: 1.0;"/><text fill="#000000" font-family="sans-serif" font-size="13" lengthAdjust="spacingAndGlyphs" textLength="627" x="897" y="58.0669">REST API /nodes/{nodeId}/versions/{versionId}/renditions/{renditionId}/request-direct-access-url</text><!--MD5=[2b79b6da67a0859abfd0aa0f789863cc]
link NodeVersionRelation to NodeVersionRenditionsRelation--><!--MD5=[2af19c4e5bdcf322d10a9b66a89789d5]
@startuml
package org.alfresco.rest.api.nodes {
     note top of NodeVersionRelation: REST API /nodes/{nodeId}/versions/{versionId}/request-direct-access-url
    class NodeVersionRelation {
        +requestContentDirectUrl(nodeId: String, versionId: String, parameters: Parameters, withResponse: WithResponse): DirectAccessUrl
    }

    note top of NodeVersionRenditionsRelation: REST API /nodes/{nodeId}/versions/{versionId}/renditions/{renditionId}/request-direct-access-url
    class NodeVersionRenditionsRelation {
        +requestContentDirectUrl(nodeId: String, versionId: String, parameters: Parameters, withResponse: WithResponse): DirectAccessUrl
    }
}

NodeVersionRelation -[hidden]> NodeVersionRenditionsRelation
@enduml

PlantUML version 1.2020.20beta13(Unknown compile time)
(GPL source distribution)
Java Runtime: Java(TM) SE Runtime Environment
JVM: Java HotSpot(TM) 64-Bit Server VM
Default Encoding: UTF-8
Language: en
Country: US
--></g></svg>