<?xml version="1.0" encoding="UTF-8" standalone="no"?>
<svg xmlns="http://www.w3.org/2000/svg" xmlns:xlink="http://www.w3.org/1999/xlink" contentScriptType="application/ecmascript" contentStyleType="text/css" height="210px" preserveAspectRatio="none" style="width:1540px;height:210px;" version="1.1" viewBox="0 0 1540 210" width="1540px" zoomAndPan="magnify"><defs><filter height="300%" id="fw5xt45yhs47w" width="300%" x="-1" y="-1"><feGaussianBlur result="blurOut" stdDeviation="2.0"/><feColorMatrix in="blurOut" result="blurOut2" type="matrix" values="0 0 0 0 0 0 0 0 0 0 0 0 0 0 0 0 0 0 .4 0"/><feOffset dx="4.0" dy="4.0" in="blurOut2" result="blurOut3"/><feBlend in="SourceGraphic" in2="blurOut3" mode="normal"/></filter></defs><g><!--MD5=[30f4146031c8d02ec39a0a3f72601e8b]
cluster org.alfresco.rest.api.nodes--><polygon fill="#FFFFFF" filter="url(#fw5xt45yhs47w)" points="16,6,241,6,248,28.2969,1523,28.2969,1523,203,16,203,16,6" style="stroke: #000000; stroke-width: 1.5;"/><line style="stroke: #000000; stroke-width: 1.5;" x1="16" x2="248" y1="28.2969" y2="28.2969"/><text fill="#000000" font-family="sans-serif" font-size="14" font-weight="bold" lengthAdjust="spacingAndGlyphs" textLength="219" x="20" y="20.9951">org.alfresco.rest.api.nodes</text><!--MD5=[0cd8ef2ccb26f319b3ee1cde8d16bb0a]
class NodesEntityResource--><rect codeLine="3" fill="#FEFECE" filter="url(#fw5xt45yhs47w)" height="60.8047" id="NodesEntityResource" style="stroke: #A80036; stroke-width: 1.5;" width="666" x="32" y="126"/><ellipse cx="296.75" cy="142" fill="#ADD1B2" rx="11" ry="11" style="stroke: #A80036; stroke-width: 1.0;"/><path d="M299.0938,137.6719 C298.1563,137.2344 297.5625,137.0938 296.6875,137.0938 C294.0625,137.0938 292.0625,139.1719 292.0625,141.8906 L292.0625,143.0156 C292.0625,145.5938 294.1719,147.4844 297.0625,147.4844 C298.2813,147.4844 299.4375,147.1875 300.1875,146.6406 C300.7656,146.2344 301.0938,145.7813 301.0938,145.3906 C301.0938,144.9375 300.7031,144.5469 300.2344,144.5469 C300.0156,144.5469 299.8125,144.625 299.625,144.8125 C299.1719,145.2969 299.1719,145.2969 298.9844,145.3906 C298.5625,145.6563 297.875,145.7813 297.1094,145.7813 C295.0625,145.7813 293.7656,144.6875 293.7656,142.9844 L293.7656,141.8906 C293.7656,140.1094 295.0156,138.7969 296.75,138.7969 C297.3281,138.7969 297.9375,138.9531 298.4063,139.2031 C298.8906,139.4844 299.0625,139.7031 299.1563,140.1094 C299.2188,140.5156 299.25,140.6406 299.3906,140.7656 C299.5313,140.9063 299.7656,141.0156 299.9844,141.0156 C300.25,141.0156 300.5156,140.875 300.6875,140.6563 C300.7969,140.5 300.8281,140.3125 300.8281,139.8906 L300.8281,138.4688 C300.8281,138.0313 300.8125,137.9063 300.7188,137.75 C300.5625,137.4844 300.2813,137.3438 299.9844,137.3438 C299.6875,137.3438 299.4844,137.4375 299.2656,137.75 L299.0938,137.6719 Z " fill="#000000"/><text fill="#000000" font-family="sans-serif" font-size="12" lengthAdjust="spacingAndGlyphs" textLength="128" x="317.25" y="146.1543">NodesEntityResource</text><line style="stroke: #A80036; stroke-width: 1.5;" x1="33" x2="697" y1="158" y2="158"/><line style="stroke: #A80036; stroke-width: 1.5;" x1="33" x2="697" y1="166" y2="166"/><ellipse cx="43" cy="177" fill="#84BE84" rx="3" ry="3" style="stroke: #038048; stroke-width: 1.0;"/><text fill="#000000" font-family="sans-serif" font-size="11" lengthAdjust="spacingAndGlyphs" textLength="640" x="52" y="180.2104">requestContentDirectUrl(nodeId: String, parameters: Parameters, withResponse: WithResponse): DirectAccessUrl</text><path d="M188,41 L188,66.1328 A0,0 0 0 0 188,66.1328 L361,66.1328 L365,125.9981 L369,66.1328 L542,66.1328 A0,0 0 0 0 542,66.1328 L542,51 L532,41 L188,41 A0,0 0 0 0 188,41 " fill="#FBFB77" filter="url(#fw5xt45yhs47w)" style="stroke: #A80036; stroke-width: 1.0;"/><path d="M532,41 L532,51 L542,51 L532,41 " fill="#FBFB77" style="stroke: #A80036; stroke-width: 1.0;"/><text fill="#000000" font-family="sans-serif" font-size="13" lengthAdjust="spacingAndGlyphs" textLength="333" x="194" y="58.0669">REST API /nodes/{nodeId}/request-direct-access-url</text><!--MD5=[e71ce39916daeb264bdb268d6f43cf6b]
class NodeRenditionsRelation--><rect codeLine="8" fill="#FEFECE" filter="url(#fw5xt45yhs47w)" height="60.8047" id="NodeRenditionsRelation" style="stroke: #A80036; stroke-width: 1.5;" width="773" x="733.5" y="126"/><ellipse cx="1045.25" cy="142" fill="#ADD1B2" rx="11" ry="11" style="stroke: #A80036; stroke-width: 1.0;"/><path d="M1047.5938,137.6719 C1046.6563,137.2344 1046.0625,137.0938 1045.1875,137.0938 C1042.5625,137.0938 1040.5625,139.1719 1040.5625,141.8906 L1040.5625,143.0156 C1040.5625,145.5938 1042.6719,147.4844 1045.5625,147.4844 C1046.7813,147.4844 1047.9375,147.1875 1048.6875,146.6406 C1049.2656,146.2344 1049.5938,145.7813 1049.5938,145.3906 C1049.5938,144.9375 1049.2031,144.5469 1048.7344,144.5469 C1048.5156,144.5469 1048.3125,144.625 1048.125,144.8125 C1047.6719,145.2969 1047.6719,145.2969 1047.4844,145.3906 C1047.0625,145.6563 1046.375,145.7813 1045.6094,145.7813 C1043.5625,145.7813 1042.2656,144.6875 1042.2656,142.9844 L1042.2656,141.8906 C1042.2656,140.1094 1043.5156,138.7969 1045.25,138.7969 C1045.8281,138.7969 1046.4375,138.9531 1046.9063,139.2031 C1047.3906,139.4844 1047.5625,139.7031 1047.6563,140.1094 C1047.7188,140.5156 1047.75,140.6406 1047.8906,140.7656 C1048.0313,140.9063 1048.2656,141.0156 1048.4844,141.0156 C1048.75,141.0156 1049.0156,140.875 1049.1875,140.6563 C1049.2969,140.5 1049.3281,140.3125 1049.3281,139.8906 L1049.3281,138.4688 C1049.3281,138.0313 1049.3125,137.9063 1049.2188,137.75 C1049.0625,137.4844 1048.7813,137.3438 1048.4844,137.3438 C1048.1875,137.3438 1047.9844,137.4375 1047.7656,137.75 L1047.5938,137.6719 Z " fill="#000000"/><text fill="#000000" font-family="sans-serif" font-size="12" lengthAdjust="spacingAndGlyphs" textLength="141" x="1065.75" y="146.1543">NodeRenditionsRelation</text><line style="stroke: #A80036; stroke-width: 1.5;" x1="734.5" x2="1505.5" y1="158" y2="158"/><line style="stroke: #A80036; stroke-width: 1.5;" x1="734.5" x2="1505.5" y1="166" y2="166"/><ellipse cx="744.5" cy="177" fill="#84BE84" rx="3" ry="3" style="stroke: #038048; stroke-width: 1.0;"/><text fill="#000000" font-family="sans-serif" font-size="11" lengthAdjust="spacingAndGlyphs" textLength="747" x="753.5" y="180.2104">requestContentDirectUrl(nodeId: String, renditionId: String, parameters: Parameters, withResponse: WithResponse): DirectAccessUrl</text><path d="M865,41 L865,66.1328 A0,0 0 0 0 865,66.1328 L1116,66.1328 L1120,125.9981 L1124,66.1328 L1375,66.1328 A0,0 0 0 0 1375,66.1328 L1375,51 L1365,41 L865,41 A0,0 0 0 0 865,41 " fill="#FBFB77" filter="url(#fw5xt45yhs47w)" style="stroke: #A80036; stroke-width: 1.0;"/><path d="M1365,41 L1365,51 L1375,51 L1365,41 " fill="#FBFB77" style="stroke: #A80036; stroke-width: 1.0;"/><text fill="#000000" font-family="sans-serif" font-size="13" lengthAdjust="spacingAndGlyphs" textLength="489" x="871" y="58.0669">REST API /nodes/{nodeId}/renditions/{renditionId}/request-direct-access-url</text><!--MD5=[120c03f12539de0905ccb6ed85324779]
link NodesEntityResource to NodeRenditionsRelation--><!--MD5=[54d70609383b7a0856157cc0849dfb56]
@startuml
package org.alfresco.rest.api.nodes {
    note top of NodesEntityResource: REST API /nodes/{nodeId}/request-direct-access-url
    class NodesEntityResource {
        +requestContentDirectUrl(nodeId: String, parameters: Parameters, withResponse: WithResponse): DirectAccessUrl
    }

    note top of NodeRenditionsRelation: REST API /nodes/{nodeId}/renditions/{renditionId}/request-direct-access-url
    class NodeRenditionsRelation {
        +requestContentDirectUrl(nodeId: String, renditionId: String, parameters: Parameters, withResponse: WithResponse): DirectAccessUrl
    }
}
NodesEntityResource -[hidden]> NodeRenditionsRelation
@enduml

PlantUML version 1.2020.20beta13(Unknown compile time)
(GPL source distribution)
Java Runtime: Java(TM) SE Runtime Environment
JVM: Java HotSpot(TM) 64-Bit Server VM
Default Encoding: UTF-8
Language: en
Country: US
--></g></svg>