<?xml version="1.0" encoding="UTF-8" standalone="no"?>
<svg xmlns="http://www.w3.org/2000/svg" xmlns:xlink="http://www.w3.org/1999/xlink" contentScriptType="application/ecmascript" contentStyleType="text/css" height="125px" preserveAspectRatio="none" style="width:733px;height:125px;" version="1.1" viewBox="0 0 733 125" width="733px" zoomAndPan="magnify"><defs><filter height="300%" id="f13gc5e1qolsqt" width="300%" x="-1" y="-1"><feGaussianBlur result="blurOut" stdDeviation="2.0"/><feColorMatrix in="blurOut" result="blurOut2" type="matrix" values="0 0 0 0 0 0 0 0 0 0 0 0 0 0 0 0 0 0 .4 0"/><feOffset dx="4.0" dy="4.0" in="blurOut2" result="blurOut3"/><feBlend in="SourceGraphic" in2="blurOut3" mode="normal"/></filter></defs><g><!--MD5=[0d712c1a1d55b119e1fe8ff0f23459cf]
cluster org.alfresco.integrations.connector--><polygon fill="#FFFFFF" filter="url(#f13gc5e1qolsqt)" points="16,6,313,6,320,28.2969,716,28.2969,716,118,16,118,16,6" style="stroke: #000000; stroke-width: 1.5;"/><line style="stroke: #000000; stroke-width: 1.5;" x1="16" x2="320" y1="28.2969" y2="28.2969"/><text fill="#000000" font-family="sans-serif" font-size="14" font-weight="bold" lengthAdjust="spacingAndGlyphs" textLength="291" x="20" y="20.9951">org.alfresco.integrations.connector</text><!--MD5=[4e934a6b2ba7aefbc17cfff0fb16f35c]
class ServiceAdapter--><rect codeLine="2" fill="#FEFECE" filter="url(#f13gc5e1qolsqt)" height="60.8047" id="ServiceAdapter" style="stroke: #A80036; stroke-width: 1.5;" width="667" x="32.5" y="41"/><ellipse cx="315.75" cy="57" fill="#B4A7E5" rx="11" ry="11" style="stroke: #A80036; stroke-width: 1.0;"/><path d="M316.7031,53.7813 L318.4219,53.7813 C318.8125,53.7813 319,53.75 319.125,53.6719 C319.3906,53.5156 319.5313,53.2344 319.5313,52.9375 C319.5313,52.6719 319.4219,52.4063 319.1875,52.2344 C319.0156,52.125 318.875,52.0938 318.4219,52.0938 L313.2813,52.0938 C312.8438,52.0938 312.7188,52.1094 312.5625,52.2031 C312.3125,52.3594 312.1563,52.6563 312.1563,52.9375 C312.1563,53.2188 312.2969,53.4688 312.5156,53.6406 C312.6719,53.75 312.8594,53.7813 313.2813,53.7813 L315,53.7813 L315,60.2969 L313.2813,60.2969 C312.8438,60.2969 312.7188,60.3125 312.5625,60.4219 C312.3125,60.5781 312.1563,60.8594 312.1563,61.1563 C312.1563,61.4063 312.2969,61.6719 312.5156,61.8281 C312.6719,61.9531 312.875,62 313.2813,62 L318.4219,62 C319.1719,62 319.5313,61.7188 319.5313,61.1563 C319.5313,60.875 319.4219,60.625 319.1875,60.4531 C319.0156,60.3281 318.875,60.2969 318.4219,60.2969 L316.7031,60.2969 L316.7031,53.7813 Z " fill="#000000"/><text fill="#000000" font-family="sans-serif" font-size="12" font-style="italic" lengthAdjust="spacingAndGlyphs" textLength="92" x="336.25" y="61.1543">ServiceAdapter</text><line style="stroke: #A80036; stroke-width: 1.5;" x1="33.5" x2="698.5" y1="73" y2="73"/><line style="stroke: #A80036; stroke-width: 1.5;" x1="33.5" x2="698.5" y1="81" y2="81"/><ellipse cx="43.5" cy="92" fill="#84BE84" rx="3" ry="3" style="stroke: #038048; stroke-width: 1.0;"/><text fill="#000000" font-family="sans-serif" font-size="11" lengthAdjust="spacingAndGlyphs" textLength="641" x="52.5" y="95.2104">requestDirectAccessUrl(contentUrl: String, attachment: boolean, fileName: String, validFor: long): DirectAccessUrl</text><!--MD5=[8a4cfc73b167127b63966a257eca46bd]
@startuml
package org.alfresco.integrations.connector {
    interface ServiceAdapter {
        +requestDirectAccessUrl(contentUrl: String, attachment: boolean, fileName: String, validFor: long): DirectAccessUrl
    }
}
@enduml

PlantUML version 1.2020.20beta13(Unknown compile time)
(GPL source distribution)
Java Runtime: Java(TM) SE Runtime Environment
JVM: Java HotSpot(TM) 64-Bit Server VM
Default Encoding: UTF-8
Language: en
Country: US
--></g></svg>