<?xml version="1.0" encoding="UTF-8" standalone="no"?>
<svg xmlns="http://www.w3.org/2000/svg" xmlns:xlink="http://www.w3.org/1999/xlink" contentScriptType="application/ecmascript" contentStyleType="text/css" height="138px" preserveAspectRatio="none" style="width:1519px;height:138px;" version="1.1" viewBox="0 0 1519 138" width="1519px" zoomAndPan="magnify"><defs><filter height="300%" id="f1g1sbagwqchr3" width="300%" x="-1" y="-1"><feGaussianBlur result="blurOut" stdDeviation="2.0"/><feColorMatrix in="blurOut" result="blurOut2" type="matrix" values="0 0 0 0 0 0 0 0 0 0 0 0 0 0 0 0 0 0 .4 0"/><feOffset dx="4.0" dy="4.0" in="blurOut2" result="blurOut3"/><feBlend in="SourceGraphic" in2="blurOut3" mode="normal"/></filter></defs><g><!--MD5=[0d712c1a1d55b119e1fe8ff0f23459cf]
cluster org.alfresco.integrations.connector--><polygon fill="#FFFFFF" filter="url(#f1g1sbagwqchr3)" points="16,6,313,6,320,28.2969,1502,28.2969,1502,131,16,131,16,6" style="stroke: #000000; stroke-width: 1.5;"/><line style="stroke: #000000; stroke-width: 1.5;" x1="16" x2="320" y1="28.2969" y2="28.2969"/><text fill="#000000" font-family="sans-serif" font-size="14" font-weight="bold" lengthAdjust="spacingAndGlyphs" textLength="291" x="20" y="20.9951">org.alfresco.integrations.connector</text><!--MD5=[703120542b8170174e3cd602671ff97c]
class AmazonS3ServiceAdapter--><rect codeLine="2" fill="#FEFECE" filter="url(#f1g1sbagwqchr3)" height="60.8047" id="AmazonS3ServiceAdapter" style="stroke: #A80036; stroke-width: 1.5;" width="667" x="818.5" y="47.5"/><ellipse cx="1068.75" cy="63.5" fill="#ADD1B2" rx="11" ry="11" style="stroke: #A80036; stroke-width: 1.0;"/><path d="M1071.0938,59.1719 C1070.1563,58.7344 1069.5625,58.5938 1068.6875,58.5938 C1066.0625,58.5938 1064.0625,60.6719 1064.0625,63.3906 L1064.0625,64.5156 C1064.0625,67.0938 1066.1719,68.9844 1069.0625,68.9844 C1070.2813,68.9844 1071.4375,68.6875 1072.1875,68.1406 C1072.7656,67.7344 1073.0938,67.2813 1073.0938,66.8906 C1073.0938,66.4375 1072.7031,66.0469 1072.2344,66.0469 C1072.0156,66.0469 1071.8125,66.125 1071.625,66.3125 C1071.1719,66.7969 1071.1719,66.7969 1070.9844,66.8906 C1070.5625,67.1563 1069.875,67.2813 1069.1094,67.2813 C1067.0625,67.2813 1065.7656,66.1875 1065.7656,64.4844 L1065.7656,63.3906 C1065.7656,61.6094 1067.0156,60.2969 1068.75,60.2969 C1069.3281,60.2969 1069.9375,60.4531 1070.4063,60.7031 C1070.8906,60.9844 1071.0625,61.2031 1071.1563,61.6094 C1071.2188,62.0156 1071.25,62.1406 1071.3906,62.2656 C1071.5313,62.4063 1071.7656,62.5156 1071.9844,62.5156 C1072.25,62.5156 1072.5156,62.375 1072.6875,62.1563 C1072.7969,62 1072.8281,61.8125 1072.8281,61.3906 L1072.8281,59.9688 C1072.8281,59.5313 1072.8125,59.4063 1072.7188,59.25 C1072.5625,58.9844 1072.2813,58.8438 1071.9844,58.8438 C1071.6875,58.8438 1071.4844,58.9375 1071.2656,59.25 L1071.0938,59.1719 Z " fill="#000000"/><text fill="#000000" font-family="sans-serif" font-size="12" lengthAdjust="spacingAndGlyphs" textLength="158" x="1089.25" y="67.6543">AmazonS3ServiceAdapter</text><line style="stroke: #A80036; stroke-width: 1.5;" x1="819.5" x2="1484.5" y1="79.5" y2="79.5"/><line style="stroke: #A80036; stroke-width: 1.5;" x1="819.5" x2="1484.5" y1="87.5" y2="87.5"/><ellipse cx="829.5" cy="98.5" fill="#84BE84" rx="3" ry="3" style="stroke: #038048; stroke-width: 1.0;"/><text fill="#000000" font-family="sans-serif" font-size="11" lengthAdjust="spacingAndGlyphs" textLength="641" x="838.5" y="101.7104">requestDirectAccessUrl(contentUrl: String, attachment: boolean, fileName: String, validFor: long): DirectAccessUrl</text><!--MD5=[27b0043d1c7df5f977e579f9a6f17c17]
class S3ContentStore--><rect codeLine="6" fill="#FEFECE" filter="url(#f1g1sbagwqchr3)" height="73.6094" id="S3ContentStore" style="stroke: #A80036; stroke-width: 1.5;" width="751" x="32.5" y="41"/><ellipse cx="356.25" cy="57" fill="#ADD1B2" rx="11" ry="11" style="stroke: #A80036; stroke-width: 1.0;"/><path d="M358.5938,52.6719 C357.6563,52.2344 357.0625,52.0938 356.1875,52.0938 C353.5625,52.0938 351.5625,54.1719 351.5625,56.8906 L351.5625,58.0156 C351.5625,60.5938 353.6719,62.4844 356.5625,62.4844 C357.7813,62.4844 358.9375,62.1875 359.6875,61.6406 C360.2656,61.2344 360.5938,60.7813 360.5938,60.3906 C360.5938,59.9375 360.2031,59.5469 359.7344,59.5469 C359.5156,59.5469 359.3125,59.625 359.125,59.8125 C358.6719,60.2969 358.6719,60.2969 358.4844,60.3906 C358.0625,60.6563 357.375,60.7813 356.6094,60.7813 C354.5625,60.7813 353.2656,59.6875 353.2656,57.9844 L353.2656,56.8906 C353.2656,55.1094 354.5156,53.7969 356.25,53.7969 C356.8281,53.7969 357.4375,53.9531 357.9063,54.2031 C358.3906,54.4844 358.5625,54.7031 358.6563,55.1094 C358.7188,55.5156 358.75,55.6406 358.8906,55.7656 C359.0313,55.9063 359.2656,56.0156 359.4844,56.0156 C359.75,56.0156 360.0156,55.875 360.1875,55.6563 C360.2969,55.5 360.3281,55.3125 360.3281,54.8906 L360.3281,53.4688 C360.3281,53.0313 360.3125,52.9063 360.2188,52.75 C360.0625,52.4844 359.7813,52.3438 359.4844,52.3438 C359.1875,52.3438 358.9844,52.4375 358.7656,52.75 L358.5938,52.6719 Z " fill="#000000"/><text fill="#000000" font-family="sans-serif" font-size="12" lengthAdjust="spacingAndGlyphs" textLength="95" x="376.75" y="61.1543">S3ContentStore</text><line style="stroke: #A80036; stroke-width: 1.5;" x1="33.5" x2="782.5" y1="73" y2="73"/><line style="stroke: #A80036; stroke-width: 1.5;" x1="33.5" x2="782.5" y1="81" y2="81"/><ellipse cx="43.5" cy="92" fill="#84BE84" rx="3" ry="3" style="stroke: #038048; stroke-width: 1.0;"/><text fill="#000000" font-family="sans-serif" font-size="11" lengthAdjust="spacingAndGlyphs" textLength="725" x="52.5" y="95.2104">requestDirectAccessUrl(contentUrl: String, attachment: boolean, fileName: String, validForOp: Optional&lt;Long&gt;): DirectAccessUrl</text><ellipse cx="43.5" cy="104.8047" fill="#84BE84" rx="3" ry="3" style="stroke: #038048; stroke-width: 1.0;"/><text fill="#000000" font-family="sans-serif" font-size="11" lengthAdjust="spacingAndGlyphs" textLength="203" x="52.5" y="108.0151">isDirectAccessSupported(): boolean</text><!--MD5=[15e29e4e675450564d157f717cf01d5d]
@startuml
package org.alfresco.integrations.connector {
    class AmazonS3ServiceAdapter {
        +requestDirectAccessUrl(contentUrl: String, attachment: boolean, fileName: String, validFor: long): DirectAccessUrl
    }
    
    class S3ContentStore {
        +requestDirectAccessUrl(contentUrl: String, attachment: boolean, fileName: String, validForOp: Optional<Long>): DirectAccessUrl
        +isDirectAccessSupported(): boolean
    }
}
@enduml

PlantUML version 1.2020.20beta13(Unknown compile time)
(GPL source distribution)
Java Runtime: Java(TM) SE Runtime Environment
JVM: Java HotSpot(TM) 64-Bit Server VM
Default Encoding: UTF-8
Language: en
Country: US
--></g></svg>