<?xml version="1.0" encoding="UTF-8" standalone="no"?>
<svg xmlns="http://www.w3.org/2000/svg" xmlns:xlink="http://www.w3.org/1999/xlink" contentScriptType="application/ecmascript" contentStyleType="text/css" height="337px" preserveAspectRatio="none" style="width:1358px;height:337px;" version="1.1" viewBox="0 0 1358 337" width="1358px" zoomAndPan="magnify"><defs><filter height="300%" id="f12c6bnchclfdk" width="300%" x="-1" y="-1"><feGaussianBlur result="blurOut" stdDeviation="2.0"/><feColorMatrix in="blurOut" result="blurOut2" type="matrix" values="0 0 0 0 0 0 0 0 0 0 0 0 0 0 0 0 0 0 .4 0"/><feOffset dx="4.0" dy="4.0" in="blurOut2" result="blurOut3"/><feBlend in="SourceGraphic" in2="blurOut3" mode="normal"/></filter></defs><g><!--MD5=[97d660ed37b88e90cdf681d54249f8e7]
cluster org.alfresco.service.cmr.repository--><polygon fill="#FFFFFF" filter="url(#f12c6bnchclfdk)" points="16,6,307,6,314,28.2969,809,28.2969,809,156,16,156,16,6" style="stroke: #000000; stroke-width: 1.5;"/><line style="stroke: #000000; stroke-width: 1.5;" x1="16" x2="314" y1="28.2969" y2="28.2969"/><text fill="#000000" font-family="sans-serif" font-size="14" font-weight="bold" lengthAdjust="spacingAndGlyphs" textLength="285" x="20" y="20.9951">org.alfresco.service.cmr.repository</text><!--MD5=[b25b3355f637a48e6043a8858f79a511]
cluster org.aflresco.repo.content--><polygon fill="#FFFFFF" filter="url(#f12c6bnchclfdk)" points="16,180,230,180,237,202.2969,1341,202.2969,1341,330,16,330,16,180" style="stroke: #000000; stroke-width: 1.5;"/><line style="stroke: #000000; stroke-width: 1.5;" x1="16" x2="237" y1="202.2969" y2="202.2969"/><text fill="#000000" font-family="sans-serif" font-size="14" font-weight="bold" lengthAdjust="spacingAndGlyphs" textLength="208" x="20" y="194.9951">org.aflresco.repo.content</text><!--MD5=[3e05c0d610539afa07c398e97ec8efcf]
class DirectAccessUrl--><rect codeLine="2" fill="#FEFECE" filter="url(#f12c6bnchclfdk)" height="86.4141" id="DirectAccessUrl" style="stroke: #A80036; stroke-width: 1.5;" width="144" x="649" y="47.5"/><ellipse cx="670.75" cy="63.5" fill="#ADD1B2" rx="11" ry="11" style="stroke: #A80036; stroke-width: 1.0;"/><path d="M673.0938,59.1719 C672.1563,58.7344 671.5625,58.5938 670.6875,58.5938 C668.0625,58.5938 666.0625,60.6719 666.0625,63.3906 L666.0625,64.5156 C666.0625,67.0938 668.1719,68.9844 671.0625,68.9844 C672.2813,68.9844 673.4375,68.6875 674.1875,68.1406 C674.7656,67.7344 675.0938,67.2813 675.0938,66.8906 C675.0938,66.4375 674.7031,66.0469 674.2344,66.0469 C674.0156,66.0469 673.8125,66.125 673.625,66.3125 C673.1719,66.7969 673.1719,66.7969 672.9844,66.8906 C672.5625,67.1563 671.875,67.2813 671.1094,67.2813 C669.0625,67.2813 667.7656,66.1875 667.7656,64.4844 L667.7656,63.3906 C667.7656,61.6094 669.0156,60.2969 670.75,60.2969 C671.3281,60.2969 671.9375,60.4531 672.4063,60.7031 C672.8906,60.9844 673.0625,61.2031 673.1563,61.6094 C673.2188,62.0156 673.25,62.1406 673.3906,62.2656 C673.5313,62.4063 673.7656,62.5156 673.9844,62.5156 C674.25,62.5156 674.5156,62.375 674.6875,62.1563 C674.7969,62 674.8281,61.8125 674.8281,61.3906 L674.8281,59.9688 C674.8281,59.5313 674.8125,59.4063 674.7188,59.25 C674.5625,58.9844 674.2813,58.8438 673.9844,58.8438 C673.6875,58.8438 673.4844,58.9375 673.2656,59.25 L673.0938,59.1719 Z " fill="#000000"/><text fill="#000000" font-family="sans-serif" font-size="12" lengthAdjust="spacingAndGlyphs" textLength="97" x="686.25" y="67.6543">DirectAccessUrl</text><line style="stroke: #A80036; stroke-width: 1.5;" x1="650" x2="792" y1="79.5" y2="79.5"/><rect fill="none" height="6" style="stroke: #C82930; stroke-width: 1.0;" width="6" x="657" y="87.5"/><text fill="#000000" font-family="sans-serif" font-size="11" lengthAdjust="spacingAndGlyphs" textLength="54" x="669" y="93.7104">url: String</text><rect fill="none" height="6" style="stroke: #C82930; stroke-width: 1.0;" width="6" x="657" y="100.3047"/><text fill="#000000" font-family="sans-serif" font-size="11" lengthAdjust="spacingAndGlyphs" textLength="100" x="669" y="106.5151">expiryTime: Date</text><rect fill="none" height="6" style="stroke: #C82930; stroke-width: 1.0;" width="6" x="657" y="113.1094"/><text fill="#000000" font-family="sans-serif" font-size="11" lengthAdjust="spacingAndGlyphs" textLength="118" x="669" y="119.3198">attachment: boolean</text><line style="stroke: #A80036; stroke-width: 1.5;" x1="650" x2="792" y1="125.9141" y2="125.9141"/><!--MD5=[084445e2f07b50279f4b2223390185b4]
class ContentService--><rect codeLine="8" fill="#FEFECE" filter="url(#f12c6bnchclfdk)" height="99.2188" id="ContentService" style="stroke: #A80036; stroke-width: 1.5;" width="582" x="32" y="41"/><ellipse cx="272.75" cy="57" fill="#B4A7E5" rx="11" ry="11" style="stroke: #A80036; stroke-width: 1.0;"/><path d="M273.7031,53.7813 L275.4219,53.7813 C275.8125,53.7813 276,53.75 276.125,53.6719 C276.3906,53.5156 276.5313,53.2344 276.5313,52.9375 C276.5313,52.6719 276.4219,52.4063 276.1875,52.2344 C276.0156,52.125 275.875,52.0938 275.4219,52.0938 L270.2813,52.0938 C269.8438,52.0938 269.7188,52.1094 269.5625,52.2031 C269.3125,52.3594 269.1563,52.6563 269.1563,52.9375 C269.1563,53.2188 269.2969,53.4688 269.5156,53.6406 C269.6719,53.75 269.8594,53.7813 270.2813,53.7813 L272,53.7813 L272,60.2969 L270.2813,60.2969 C269.8438,60.2969 269.7188,60.3125 269.5625,60.4219 C269.3125,60.5781 269.1563,60.8594 269.1563,61.1563 C269.1563,61.4063 269.2969,61.6719 269.5156,61.8281 C269.6719,61.9531 269.875,62 270.2813,62 L275.4219,62 C276.1719,62 276.5313,61.7188 276.5313,61.1563 C276.5313,60.875 276.4219,60.625 276.1875,60.4531 C276.0156,60.3281 275.875,60.2969 275.4219,60.2969 L273.7031,60.2969 L273.7031,53.7813 Z " fill="#000000"/><text fill="#000000" font-family="sans-serif" font-size="12" font-style="italic" lengthAdjust="spacingAndGlyphs" textLength="92" x="293.25" y="61.1543">ContentService</text><line style="stroke: #A80036; stroke-width: 1.5;" x1="33" x2="613" y1="73" y2="73"/><line style="stroke: #A80036; stroke-width: 1.5;" x1="33" x2="613" y1="81" y2="81"/><ellipse cx="43" cy="92" fill="#84BE84" rx="3" ry="3" style="stroke: #038048; stroke-width: 1.0;"/><text fill="#000000" font-family="sans-serif" font-size="11" font-style="italic" lengthAdjust="spacingAndGlyphs" textLength="208" x="52" y="95.2104">isContentDirectUrlEnabled(): boolean</text><ellipse cx="43" cy="104.8047" fill="#84BE84" rx="3" ry="3" style="stroke: #038048; stroke-width: 1.0;"/><text fill="#000000" font-family="sans-serif" font-size="11" font-style="italic" lengthAdjust="spacingAndGlyphs" textLength="311" x="52" y="108.0151">isContentDirectUrlEnabled(nodeRef: NodeRef): boolean</text><ellipse cx="43" cy="117.6094" fill="#84BE84" rx="3" ry="3" style="stroke: #038048; stroke-width: 1.0;"/><text fill="#000000" font-family="sans-serif" font-size="11" lengthAdjust="spacingAndGlyphs" textLength="471" x="52" y="120.8198">requestContentDirectUrl(nodeRef: NodeRef, attachment: boolean): DirectAccessUrl</text><ellipse cx="43" cy="130.4141" fill="#84BE84" rx="3" ry="3" style="stroke: #038048; stroke-width: 1.0;"/><text fill="#000000" font-family="sans-serif" font-size="11" font-style="italic" lengthAdjust="spacingAndGlyphs" textLength="556" x="52" y="133.6245">requestContentDirectUrl(nodeRef: NodeRef, attachment: boolean, validFor: Long): DirectAccessUrl</text><!--MD5=[568fa235e6e0a48244f3c15a0fa5c732]
class ContentServiceImpl--><rect codeLine="16" fill="#FEFECE" filter="url(#f12c6bnchclfdk)" height="86.4141" id="ContentServiceImpl" style="stroke: #A80036; stroke-width: 1.5;" width="582" x="32" y="221.5"/><ellipse cx="260.25" cy="237.5" fill="#ADD1B2" rx="11" ry="11" style="stroke: #A80036; stroke-width: 1.0;"/><path d="M262.5938,233.1719 C261.6563,232.7344 261.0625,232.5938 260.1875,232.5938 C257.5625,232.5938 255.5625,234.6719 255.5625,237.3906 L255.5625,238.5156 C255.5625,241.0938 257.6719,242.9844 260.5625,242.9844 C261.7813,242.9844 262.9375,242.6875 263.6875,242.1406 C264.2656,241.7344 264.5938,241.2813 264.5938,240.8906 C264.5938,240.4375 264.2031,240.0469 263.7344,240.0469 C263.5156,240.0469 263.3125,240.125 263.125,240.3125 C262.6719,240.7969 262.6719,240.7969 262.4844,240.8906 C262.0625,241.1563 261.375,241.2813 260.6094,241.2813 C258.5625,241.2813 257.2656,240.1875 257.2656,238.4844 L257.2656,237.3906 C257.2656,235.6094 258.5156,234.2969 260.25,234.2969 C260.8281,234.2969 261.4375,234.4531 261.9063,234.7031 C262.3906,234.9844 262.5625,235.2031 262.6563,235.6094 C262.7188,236.0156 262.75,236.1406 262.8906,236.2656 C263.0313,236.4063 263.2656,236.5156 263.4844,236.5156 C263.75,236.5156 264.0156,236.375 264.1875,236.1563 C264.2969,236 264.3281,235.8125 264.3281,235.3906 L264.3281,233.9688 C264.3281,233.5313 264.3125,233.4063 264.2188,233.25 C264.0625,232.9844 263.7813,232.8438 263.4844,232.8438 C263.1875,232.8438 262.9844,232.9375 262.7656,233.25 L262.5938,233.1719 Z " fill="#000000"/><text fill="#000000" font-family="sans-serif" font-size="12" lengthAdjust="spacingAndGlyphs" textLength="117" x="280.75" y="241.6543">ContentServiceImpl</text><line style="stroke: #A80036; stroke-width: 1.5;" x1="33" x2="613" y1="253.5" y2="253.5"/><line style="stroke: #A80036; stroke-width: 1.5;" x1="33" x2="613" y1="261.5" y2="261.5"/><ellipse cx="43" cy="272.5" fill="#84BE84" rx="3" ry="3" style="stroke: #038048; stroke-width: 1.0;"/><text fill="#000000" font-family="sans-serif" font-size="11" lengthAdjust="spacingAndGlyphs" textLength="210" x="52" y="275.7104">isContentDirectUrlEnabled(): boolean</text><ellipse cx="43" cy="285.3047" fill="#84BE84" rx="3" ry="3" style="stroke: #038048; stroke-width: 1.0;"/><text fill="#000000" font-family="sans-serif" font-size="11" lengthAdjust="spacingAndGlyphs" textLength="314" x="52" y="288.5151">isContentDirectUrlEnabled(nodeRef: NodeRef): boolean</text><ellipse cx="43" cy="298.1094" fill="#84BE84" rx="3" ry="3" style="stroke: #038048; stroke-width: 1.0;"/><text fill="#000000" font-family="sans-serif" font-size="11" lengthAdjust="spacingAndGlyphs" textLength="556" x="52" y="301.3198">requestContentDirectUrl(nodeRef: NodeRef, attachment: boolean, validFor: Long): DirectAccessUrl</text><!--MD5=[fb0b1c9cf73cb0624095f35e538a39af]
class ContentStore--><rect codeLine="21" fill="#FEFECE" filter="url(#f12c6bnchclfdk)" height="99.2188" id="ContentStore" style="stroke: #A80036; stroke-width: 1.5;" width="675" x="649.5" y="215"/><ellipse cx="942.75" cy="231" fill="#B4A7E5" rx="11" ry="11" style="stroke: #A80036; stroke-width: 1.0;"/><path d="M943.7031,227.7813 L945.4219,227.7813 C945.8125,227.7813 946,227.75 946.125,227.6719 C946.3906,227.5156 946.5313,227.2344 946.5313,226.9375 C946.5313,226.6719 946.4219,226.4063 946.1875,226.2344 C946.0156,226.125 945.875,226.0938 945.4219,226.0938 L940.2813,226.0938 C939.8438,226.0938 939.7188,226.1094 939.5625,226.2031 C939.3125,226.3594 939.1563,226.6563 939.1563,226.9375 C939.1563,227.2188 939.2969,227.4688 939.5156,227.6406 C939.6719,227.75 939.8594,227.7813 940.2813,227.7813 L942,227.7813 L942,234.2969 L940.2813,234.2969 C939.8438,234.2969 939.7188,234.3125 939.5625,234.4219 C939.3125,234.5781 939.1563,234.8594 939.1563,235.1563 C939.1563,235.4063 939.2969,235.6719 939.5156,235.8281 C939.6719,235.9531 939.875,236 940.2813,236 L945.4219,236 C946.1719,236 946.5313,235.7188 946.5313,235.1563 C946.5313,234.875 946.4219,234.625 946.1875,234.4531 C946.0156,234.3281 945.875,234.2969 945.4219,234.2969 L943.7031,234.2969 L943.7031,227.7813 Z " fill="#000000"/><text fill="#000000" font-family="sans-serif" font-size="12" font-style="italic" lengthAdjust="spacingAndGlyphs" textLength="80" x="963.25" y="235.1543">ContentStore</text><line style="stroke: #A80036; stroke-width: 1.5;" x1="650.5" x2="1323.5" y1="247" y2="247"/><line style="stroke: #A80036; stroke-width: 1.5;" x1="650.5" x2="1323.5" y1="255" y2="255"/><ellipse cx="660.5" cy="266" fill="#84BE84" rx="3" ry="3" style="stroke: #038048; stroke-width: 1.0;"/><text fill="#000000" font-family="sans-serif" font-size="11" lengthAdjust="spacingAndGlyphs" textLength="210" x="669.5" y="269.2104">isContentDirectUrlEnabled(): boolean</text><ellipse cx="660.5" cy="278.8047" fill="#84BE84" rx="3" ry="3" style="stroke: #038048; stroke-width: 1.0;"/><text fill="#000000" font-family="sans-serif" font-size="11" lengthAdjust="spacingAndGlyphs" textLength="314" x="669.5" y="282.0151">isContentDirectUrlEnabled(nodeRef: NodeRef): boolean</text><ellipse cx="660.5" cy="291.6094" fill="#84BE84" rx="3" ry="3" style="stroke: #038048; stroke-width: 1.0;"/><text fill="#000000" font-family="sans-serif" font-size="11" lengthAdjust="spacingAndGlyphs" textLength="564" x="669.5" y="294.8198">requestContentDirectUrl(contentUrl: String, attachment: boolean, fileName: String): DirectAccessUrl</text><ellipse cx="660.5" cy="304.4141" fill="#84BE84" rx="3" ry="3" style="stroke: #038048; stroke-width: 1.0;"/><text fill="#000000" font-family="sans-serif" font-size="11" lengthAdjust="spacingAndGlyphs" textLength="649" x="669.5" y="307.6245">requestContentDirectUrl(contentUrl: String, attachment: boolean, fileName: String, validFor: Long): DirectAccessUrl</text><!--MD5=[6e5e732ba1812188aa977f876699719d]
reverse link ContentService to ContentServiceImpl--><path codeLine="28" d="M323,160.623 C323,181.146 323,203.003 323,221.269 " fill="none" id="ContentService-backto-ContentServiceImpl" style="stroke: #A80036; stroke-width: 1.0;"/><polygon fill="none" points="316,160.328,323,140.328,330,160.328,316,160.328" style="stroke: #A80036; stroke-width: 1.0;"/><!--MD5=[9e5b8f45ddd1a451219279a34afc1119]
link ContentServiceImpl to ContentStore--><!--MD5=[3f37235c1008319b53c03e5387c53005]
@startuml
package org.alfresco.service.cmr.repository {
    class DirectAccessUrl {
        -url: String
        -expiryTime: Date
        -attachment: boolean
    }

    interface ContentService {
        {abstract} +isContentDirectUrlEnabled(): boolean
        {abstract} +isContentDirectUrlEnabled(nodeRef: NodeRef): boolean
        +requestContentDirectUrl(nodeRef: NodeRef, attachment: boolean): DirectAccessUrl
        {abstract} +requestContentDirectUrl(nodeRef: NodeRef, attachment: boolean, validFor: Long): DirectAccessUrl
    }
}
package org.aflresco.repo.content {
    class ContentServiceImpl {
        +isContentDirectUrlEnabled(): boolean
        +isContentDirectUrlEnabled(nodeRef: NodeRef): boolean
        +requestContentDirectUrl(nodeRef: NodeRef, attachment: boolean, validFor: Long): DirectAccessUrl
    }
    interface ContentStore {
        +isContentDirectUrlEnabled(): boolean
        +isContentDirectUrlEnabled(nodeRef: NodeRef): boolean
        +requestContentDirectUrl(contentUrl: String, attachment: boolean, fileName: String): DirectAccessUrl
        +requestContentDirectUrl(contentUrl: String, attachment: boolean, fileName: String, validFor: Long): DirectAccessUrl
    }
}
ContentService <|- - ContentServiceImpl
ContentServiceImpl -[hidden]> ContentStore
@enduml

PlantUML version 1.2020.20beta13(Unknown compile time)
(GPL source distribution)
Java Runtime: Java(TM) SE Runtime Environment
JVM: Java HotSpot(TM) 64-Bit Server VM
Default Encoding: UTF-8
Language: en
Country: US
--></g></svg>