<?xml version="1.0" encoding="UTF-8" standalone="no"?>
<svg xmlns="http://www.w3.org/2000/svg" xmlns:xlink="http://www.w3.org/1999/xlink" contentScriptType="application/ecmascript" contentStyleType="text/css" height="299px" preserveAspectRatio="none" style="width:1470px;height:299px;" version="1.1" viewBox="0 0 1470 299" width="1470px" zoomAndPan="magnify"><defs><filter height="300%" id="fnntx0o4495li" width="300%" x="-1" y="-1"><feGaussianBlur result="blurOut" stdDeviation="2.0"/><feColorMatrix in="blurOut" result="blurOut2" type="matrix" values="0 0 0 0 0 0 0 0 0 0 0 0 0 0 0 0 0 0 .4 0"/><feOffset dx="4.0" dy="4.0" in="blurOut2" result="blurOut3"/><feBlend in="SourceGraphic" in2="blurOut3" mode="normal"/></filter></defs><g><!--MD5=[3dcc5f525b37d1444fba6049027caef1]
cluster org.alfresco.rest.api--><polygon fill="#FFFFFF" filter="url(#fnntx0o4495li)" points="16,6,188,6,195,28.2969,1453,28.2969,1453,156,16,156,16,6" style="stroke: #000000; stroke-width: 1.5;"/><line style="stroke: #000000; stroke-width: 1.5;" x1="16" x2="195" y1="28.2969" y2="28.2969"/><text fill="#000000" font-family="sans-serif" font-size="14" font-weight="bold" lengthAdjust="spacingAndGlyphs" textLength="166" x="20" y="20.9951">org.alfresco.rest.api</text><!--MD5=[cf8171beeaf662f356ec02828b42521f]
cluster org.alfresco.rest.api.impl--><polygon fill="#FFFFFF" filter="url(#fnntx0o4495li)" points="16,180,228,180,235,202.2969,1453,202.2969,1453,292,16,292,16,180" style="stroke: #000000; stroke-width: 1.5;"/><line style="stroke: #000000; stroke-width: 1.5;" x1="16" x2="235" y1="202.2969" y2="202.2969"/><text fill="#000000" font-family="sans-serif" font-size="14" font-weight="bold" lengthAdjust="spacingAndGlyphs" textLength="206" x="20" y="194.9951">org.alfresco.rest.api.impl</text><!--MD5=[85c68d1f87505dce9bc362d94e3e592c]
class Nodes--><rect codeLine="2" fill="#FEFECE" filter="url(#fnntx0o4495li)" height="99.2188" id="Nodes" style="stroke: #A80036; stroke-width: 1.5;" width="582" x="32" y="41"/><ellipse cx="300.25" cy="57" fill="#B4A7E5" rx="11" ry="11" style="stroke: #A80036; stroke-width: 1.0;"/><path d="M301.2031,53.7813 L302.9219,53.7813 C303.3125,53.7813 303.5,53.75 303.625,53.6719 C303.8906,53.5156 304.0313,53.2344 304.0313,52.9375 C304.0313,52.6719 303.9219,52.4063 303.6875,52.2344 C303.5156,52.125 303.375,52.0938 302.9219,52.0938 L297.7813,52.0938 C297.3438,52.0938 297.2188,52.1094 297.0625,52.2031 C296.8125,52.3594 296.6563,52.6563 296.6563,52.9375 C296.6563,53.2188 296.7969,53.4688 297.0156,53.6406 C297.1719,53.75 297.3594,53.7813 297.7813,53.7813 L299.5,53.7813 L299.5,60.2969 L297.7813,60.2969 C297.3438,60.2969 297.2188,60.3125 297.0625,60.4219 C296.8125,60.5781 296.6563,60.8594 296.6563,61.1563 C296.6563,61.4063 296.7969,61.6719 297.0156,61.8281 C297.1719,61.9531 297.375,62 297.7813,62 L302.9219,62 C303.6719,62 304.0313,61.7188 304.0313,61.1563 C304.0313,60.875 303.9219,60.625 303.6875,60.4531 C303.5156,60.3281 303.375,60.2969 302.9219,60.2969 L301.2031,60.2969 L301.2031,53.7813 Z " fill="#000000"/><text fill="#000000" font-family="sans-serif" font-size="12" font-style="italic" lengthAdjust="spacingAndGlyphs" textLength="37" x="320.75" y="61.1543">Nodes</text><line style="stroke: #A80036; stroke-width: 1.5;" x1="33" x2="613" y1="73" y2="73"/><line style="stroke: #A80036; stroke-width: 1.5;" x1="33" x2="613" y1="81" y2="81"/><ellipse cx="43" cy="92" fill="#84BE84" rx="3" ry="3" style="stroke: #038048; stroke-width: 1.0;"/><text fill="#000000" font-family="sans-serif" font-size="11" lengthAdjust="spacingAndGlyphs" textLength="446" x="52" y="95.2104">requestContentDirectUrl(nodeId: String, attachment: boolean): DirectAccessUrl</text><ellipse cx="43" cy="104.8047" fill="#84BE84" rx="3" ry="3" style="stroke: #038048; stroke-width: 1.0;"/><text fill="#000000" font-family="sans-serif" font-size="11" lengthAdjust="spacingAndGlyphs" textLength="531" x="52" y="108.0151">requestContentDirectUrl(nodeId: String, attachment: boolean, validFor: Long): DirectAccessUrl</text><ellipse cx="43" cy="117.6094" fill="#84BE84" rx="3" ry="3" style="stroke: #038048; stroke-width: 1.0;"/><text fill="#000000" font-family="sans-serif" font-size="11" lengthAdjust="spacingAndGlyphs" textLength="471" x="52" y="120.8198">requestContentDirectUrl(nodeRef: NodeRef, attachment: boolean): DirectAccessUrl</text><ellipse cx="43" cy="130.4141" fill="#84BE84" rx="3" ry="3" style="stroke: #038048; stroke-width: 1.0;"/><text fill="#000000" font-family="sans-serif" font-size="11" font-style="italic" lengthAdjust="spacingAndGlyphs" textLength="556" x="52" y="133.6245">requestContentDirectUrl(nodeRef: NodeRef, attachment: boolean, validFor: Long): DirectAccessUrl</text><!--MD5=[63a22d4aa98d5b10b5c4ec531ce922b4]
class Renditions--><rect codeLine="8" fill="#FEFECE" filter="url(#fnntx0o4495li)" height="99.2188" id="Renditions" style="stroke: #A80036; stroke-width: 1.5;" width="788" x="649" y="41"/><ellipse cx="1007.25" cy="57" fill="#B4A7E5" rx="11" ry="11" style="stroke: #A80036; stroke-width: 1.0;"/><path d="M1008.2031,53.7813 L1009.9219,53.7813 C1010.3125,53.7813 1010.5,53.75 1010.625,53.6719 C1010.8906,53.5156 1011.0313,53.2344 1011.0313,52.9375 C1011.0313,52.6719 1010.9219,52.4063 1010.6875,52.2344 C1010.5156,52.125 1010.375,52.0938 1009.9219,52.0938 L1004.7813,52.0938 C1004.3438,52.0938 1004.2188,52.1094 1004.0625,52.2031 C1003.8125,52.3594 1003.6563,52.6563 1003.6563,52.9375 C1003.6563,53.2188 1003.7969,53.4688 1004.0156,53.6406 C1004.1719,53.75 1004.3594,53.7813 1004.7813,53.7813 L1006.5,53.7813 L1006.5,60.2969 L1004.7813,60.2969 C1004.3438,60.2969 1004.2188,60.3125 1004.0625,60.4219 C1003.8125,60.5781 1003.6563,60.8594 1003.6563,61.1563 C1003.6563,61.4063 1003.7969,61.6719 1004.0156,61.8281 C1004.1719,61.9531 1004.375,62 1004.7813,62 L1009.9219,62 C1010.6719,62 1011.0313,61.7188 1011.0313,61.1563 C1011.0313,60.875 1010.9219,60.625 1010.6875,60.4531 C1010.5156,60.3281 1010.375,60.2969 1009.9219,60.2969 L1008.2031,60.2969 L1008.2031,53.7813 Z " fill="#000000"/><text fill="#000000" font-family="sans-serif" font-size="12" font-style="italic" lengthAdjust="spacingAndGlyphs" textLength="63" x="1027.75" y="61.1543">Renditions</text><line style="stroke: #A80036; stroke-width: 1.5;" x1="650" x2="1436" y1="73" y2="73"/><line style="stroke: #A80036; stroke-width: 1.5;" x1="650" x2="1436" y1="81" y2="81"/><ellipse cx="660" cy="92" fill="#84BE84" rx="3" ry="3" style="stroke: #038048; stroke-width: 1.0;"/><text fill="#000000" font-family="sans-serif" font-size="11" lengthAdjust="spacingAndGlyphs" textLength="652" x="669" y="95.2104">requestContentDirectUrl(nodeId: String, versionId: String, renditionId: String, attachment: boolean): DirectAccessUrl</text><ellipse cx="660" cy="104.8047" fill="#84BE84" rx="3" ry="3" style="stroke: #038048; stroke-width: 1.0;"/><text fill="#000000" font-family="sans-serif" font-size="11" lengthAdjust="spacingAndGlyphs" textLength="737" x="669" y="108.0151">requestContentDirectUrl(nodeId: String, versionId: String, renditionId: String, attachment: boolean, validFor: Long): DirectAccessUrl</text><ellipse cx="660" cy="117.6094" fill="#84BE84" rx="3" ry="3" style="stroke: #038048; stroke-width: 1.0;"/><text fill="#000000" font-family="sans-serif" font-size="11" lengthAdjust="spacingAndGlyphs" textLength="677" x="669" y="120.8198">requestContentDirectUrl(nodeRef: NodeRef, versionId: String, renditionId: String, attachment: boolean): DirectAccessUrl</text><ellipse cx="660" cy="130.4141" fill="#84BE84" rx="3" ry="3" style="stroke: #038048; stroke-width: 1.0;"/><text fill="#000000" font-family="sans-serif" font-size="11" font-style="italic" lengthAdjust="spacingAndGlyphs" textLength="762" x="669" y="133.6245">requestContentDirectUrl(nodeRef: NodeRef, versionId: String, renditionId: String, attachment: boolean, validFor Long): DirectAccessUrl</text><!--MD5=[1847e511f82ad691a2cbe6d69a1c9b9f]
class NodesImpl--><rect codeLine="17" fill="#FEFECE" filter="url(#fnntx0o4495li)" height="60.8047" id="NodesImpl" style="stroke: #A80036; stroke-width: 1.5;" width="582" x="32" y="215"/><ellipse cx="286.75" cy="231" fill="#ADD1B2" rx="11" ry="11" style="stroke: #A80036; stroke-width: 1.0;"/><path d="M289.0938,226.6719 C288.1563,226.2344 287.5625,226.0938 286.6875,226.0938 C284.0625,226.0938 282.0625,228.1719 282.0625,230.8906 L282.0625,232.0156 C282.0625,234.5938 284.1719,236.4844 287.0625,236.4844 C288.2813,236.4844 289.4375,236.1875 290.1875,235.6406 C290.7656,235.2344 291.0938,234.7813 291.0938,234.3906 C291.0938,233.9375 290.7031,233.5469 290.2344,233.5469 C290.0156,233.5469 289.8125,233.625 289.625,233.8125 C289.1719,234.2969 289.1719,234.2969 288.9844,234.3906 C288.5625,234.6563 287.875,234.7813 287.1094,234.7813 C285.0625,234.7813 283.7656,233.6875 283.7656,231.9844 L283.7656,230.8906 C283.7656,229.1094 285.0156,227.7969 286.75,227.7969 C287.3281,227.7969 287.9375,227.9531 288.4063,228.2031 C288.8906,228.4844 289.0625,228.7031 289.1563,229.1094 C289.2188,229.5156 289.25,229.6406 289.3906,229.7656 C289.5313,229.9063 289.7656,230.0156 289.9844,230.0156 C290.25,230.0156 290.5156,229.875 290.6875,229.6563 C290.7969,229.5 290.8281,229.3125 290.8281,228.8906 L290.8281,227.4688 C290.8281,227.0313 290.8125,226.9063 290.7188,226.75 C290.5625,226.4844 290.2813,226.3438 289.9844,226.3438 C289.6875,226.3438 289.4844,226.4375 289.2656,226.75 L289.0938,226.6719 Z " fill="#000000"/><text fill="#000000" font-family="sans-serif" font-size="12" lengthAdjust="spacingAndGlyphs" textLength="64" x="307.25" y="235.1543">NodesImpl</text><line style="stroke: #A80036; stroke-width: 1.5;" x1="33" x2="613" y1="247" y2="247"/><line style="stroke: #A80036; stroke-width: 1.5;" x1="33" x2="613" y1="255" y2="255"/><ellipse cx="43" cy="266" fill="#84BE84" rx="3" ry="3" style="stroke: #038048; stroke-width: 1.0;"/><text fill="#000000" font-family="sans-serif" font-size="11" lengthAdjust="spacingAndGlyphs" textLength="556" x="52" y="269.2104">requestContentDirectUrl(nodeRef: NodeRef, attachment: boolean, validFor: Long): DirectAccessUrl</text><!--MD5=[4f04d56be6d03da481780b616265d30f]
class RenditionsImpl--><rect codeLine="21" fill="#FEFECE" filter="url(#fnntx0o4495li)" height="60.8047" id="RenditionsImpl" style="stroke: #A80036; stroke-width: 1.5;" width="788" x="649" y="215"/><ellipse cx="995.25" cy="231" fill="#ADD1B2" rx="11" ry="11" style="stroke: #A80036; stroke-width: 1.0;"/><path d="M997.5938,226.6719 C996.6563,226.2344 996.0625,226.0938 995.1875,226.0938 C992.5625,226.0938 990.5625,228.1719 990.5625,230.8906 L990.5625,232.0156 C990.5625,234.5938 992.6719,236.4844 995.5625,236.4844 C996.7813,236.4844 997.9375,236.1875 998.6875,235.6406 C999.2656,235.2344 999.5938,234.7813 999.5938,234.3906 C999.5938,233.9375 999.2031,233.5469 998.7344,233.5469 C998.5156,233.5469 998.3125,233.625 998.125,233.8125 C997.6719,234.2969 997.6719,234.2969 997.4844,234.3906 C997.0625,234.6563 996.375,234.7813 995.6094,234.7813 C993.5625,234.7813 992.2656,233.6875 992.2656,231.9844 L992.2656,230.8906 C992.2656,229.1094 993.5156,227.7969 995.25,227.7969 C995.8281,227.7969 996.4375,227.9531 996.9063,228.2031 C997.3906,228.4844 997.5625,228.7031 997.6563,229.1094 C997.7188,229.5156 997.75,229.6406 997.8906,229.7656 C998.0313,229.9063 998.2656,230.0156 998.4844,230.0156 C998.75,230.0156 999.0156,229.875 999.1875,229.6563 C999.2969,229.5 999.3281,229.3125 999.3281,228.8906 L999.3281,227.4688 C999.3281,227.0313 999.3125,226.9063 999.2188,226.75 C999.0625,226.4844 998.7813,226.3438 998.4844,226.3438 C998.1875,226.3438 997.9844,226.4375 997.7656,226.75 L997.5938,226.6719 Z " fill="#000000"/><text fill="#000000" font-family="sans-serif" font-size="12" lengthAdjust="spacingAndGlyphs" textLength="87" x="1015.75" y="235.1543">RenditionsImpl</text><line style="stroke: #A80036; stroke-width: 1.5;" x1="650" x2="1436" y1="247" y2="247"/><line style="stroke: #A80036; stroke-width: 1.5;" x1="650" x2="1436" y1="255" y2="255"/><ellipse cx="660" cy="266" fill="#84BE84" rx="3" ry="3" style="stroke: #038048; stroke-width: 1.0;"/><text fill="#000000" font-family="sans-serif" font-size="11" lengthAdjust="spacingAndGlyphs" textLength="762" x="669" y="269.2104">requestContentDirectUrl(nodeRef: NodeRef, versionId: String, renditionId: String, attachment: boolean, validFor: Long): DirectAccessUrl</text><!--MD5=[9e00a2af987340d21701323aca590bbc]
reverse link Nodes to NodesImpl--><path codeLine="25" d="M323,160.542 C323,179.603 323,199.288 323,214.8016 " fill="none" id="Nodes-backto-NodesImpl" style="stroke: #A80036; stroke-width: 1.0;"/><polygon fill="none" points="316,160.331,323,140.331,330,160.331,316,160.331" style="stroke: #A80036; stroke-width: 1.0;"/><!--MD5=[8d172f9269c913dc54f9fe5b4cfc776f]
reverse link Renditions to RenditionsImpl--><path codeLine="26" d="M1043,160.542 C1043,179.603 1043,199.288 1043,214.8016 " fill="none" id="Renditions-backto-RenditionsImpl" style="stroke: #A80036; stroke-width: 1.0;"/><polygon fill="none" points="1036,160.331,1043,140.331,1050,160.331,1036,160.331" style="stroke: #A80036; stroke-width: 1.0;"/><!--MD5=[5e5d0275b82dfffb124ab9e273fe4acd]
link Nodes to Renditions--><!--MD5=[06045d6d076cdf794f853f39f7b40c55]
@startuml
package org.alfresco.rest.api {
    interface Nodes {
        +requestContentDirectUrl(nodeId: String, attachment: boolean): DirectAccessUrl
        +requestContentDirectUrl(nodeId: String, attachment: boolean, validFor: Long): DirectAccessUrl
        +requestContentDirectUrl(nodeRef: NodeRef, attachment: boolean): DirectAccessUrl
        {abstract} +requestContentDirectUrl(nodeRef: NodeRef, attachment: boolean, validFor: Long): DirectAccessUrl
    }
    interface Renditions {
        +requestContentDirectUrl(nodeId: String, versionId: String, renditionId: String, attachment: boolean): DirectAccessUrl
        +requestContentDirectUrl(nodeId: String, versionId: String, renditionId: String, attachment: boolean, validFor: Long): DirectAccessUrl
        +requestContentDirectUrl(nodeRef: NodeRef, versionId: String, renditionId: String, attachment: boolean): DirectAccessUrl
        {abstract} +requestContentDirectUrl(nodeRef: NodeRef, versionId: String, renditionId: String, attachment: boolean, validFor Long): DirectAccessUrl
    }
}

package org.alfresco.rest.api.impl {
    class NodesImpl {
        +requestContentDirectUrl(nodeRef: NodeRef, attachment: boolean, validFor: Long): DirectAccessUrl
    }

    class RenditionsImpl {
        +requestContentDirectUrl(nodeRef: NodeRef, versionId: String, renditionId: String, attachment: boolean, validFor: Long): DirectAccessUrl
    }
}
Nodes <|- - NodesImpl
Renditions <|- - RenditionsImpl
Nodes -[hidden]> Renditions
@enduml

PlantUML version 1.2020.20beta13(Unknown compile time)
(GPL source distribution)
Java Runtime: Java(TM) SE Runtime Environment
JVM: Java HotSpot(TM) 64-Bit Server VM
Default Encoding: UTF-8
Language: en
Country: US
--></g></svg>