<?xml version="1.0" encoding="UTF-8" standalone="no"?>
<svg xmlns="http://www.w3.org/2000/svg" xmlns:xlink="http://www.w3.org/1999/xlink" contentScriptType="application/ecmascript" contentStyleType="text/css" height="689px" preserveAspectRatio="none" style="width:676px;height:689px;" version="1.1" viewBox="0 0 676 689" width="676px" zoomAndPan="magnify"><defs><filter height="300%" id="f15ky9wmixywli" width="300%" x="-1" y="-1"><feGaussianBlur result="blurOut" stdDeviation="2.0"/><feColorMatrix in="blurOut" result="blurOut2" type="matrix" values="0 0 0 0 0 0 0 0 0 0 0 0 0 0 0 0 0 0 .4 0"/><feOffset dx="4.0" dy="4.0" in="blurOut2" result="blurOut3"/><feBlend in="SourceGraphic" in2="blurOut3" mode="normal"/></filter></defs><g><rect fill="#FFFFFF" filter="url(#f15ky9wmixywli)" height="71.2656" style="stroke: #A80036; stroke-width: 1.0;" width="10" x="205" y="111.8594"/><rect fill="#FFFFFF" filter="url(#f15ky9wmixywli)" height="129.5313" style="stroke: #A80036; stroke-width: 1.0;" width="10" x="205" y="277.0625"/><rect fill="#FFFFFF" filter="url(#f15ky9wmixywli)" height="129.5313" style="stroke: #A80036; stroke-width: 1.0;" width="10" x="205" y="475.5313"/><rect fill="#FFFFFF" filter="url(#f15ky9wmixywli)" height="29.1328" style="stroke: #A80036; stroke-width: 1.0;" width="10" x="462.5" y="348.3281"/><rect fill="#FFFFFF" filter="url(#f15ky9wmixywli)" height="29.1328" style="stroke: #A80036; stroke-width: 1.0;" width="10" x="462.5" y="546.7969"/><rect fill="#FFFFFF" filter="url(#f15ky9wmixywli)" height="539.4688" style="stroke: #000000; stroke-width: 2.0;" width="652.5" x="10" y="73.5938"/><rect fill="#FFFFFF" height="223.4688" style="stroke: none; stroke-width: 1.0;" width="652.5" x="10" y="216.125"/><rect fill="#FFFFFF" height="173.4688" style="stroke: none; stroke-width: 1.0;" width="652.5" x="10" y="439.5938"/><line style="stroke: #A80036; stroke-width: 1.0; stroke-dasharray: 5.0,5.0;" x1="71" x2="71" y1="56.5938" y2="630.0625"/><line style="stroke: #A80036; stroke-width: 1.0; stroke-dasharray: 5.0,5.0;" x1="209.5" x2="209.5" y1="56.5938" y2="630.0625"/><line style="stroke: #A80036; stroke-width: 1.0; stroke-dasharray: 5.0,5.0;" x1="467.5" x2="467.5" y1="56.5938" y2="630.0625"/><rect fill="#FEFECE" filter="url(#f15ky9wmixywli)" height="30.2969" style="stroke: #A80036; stroke-width: 1.5;" width="98" x="20" y="21.2969"/><text fill="#000000" font-family="sans-serif" font-size="14" lengthAdjust="spacingAndGlyphs" textLength="84" x="27" y="41.292">REST Client</text><rect fill="#FEFECE" filter="url(#f15ky9wmixywli)" height="30.2969" style="stroke: #A80036; stroke-width: 1.5;" width="98" x="20" y="629.0625"/><text fill="#000000" font-family="sans-serif" font-size="14" lengthAdjust="spacingAndGlyphs" textLength="84" x="27" y="649.0576">REST Client</text><rect fill="#FEFECE" filter="url(#f15ky9wmixywli)" height="46.5938" style="stroke: #A80036; stroke-width: 1.5;" width="121" x="147.5" y="5"/><text fill="#000000" font-family="sans-serif" font-size="14" lengthAdjust="spacingAndGlyphs" textLength="107" x="154.5" y="24.9951">REST Endpoint</text><text fill="#000000" font-family="sans-serif" font-size="14" lengthAdjust="spacingAndGlyphs" textLength="79" x="168.5" y="41.292">(ACS Bean)</text><rect fill="#FEFECE" filter="url(#f15ky9wmixywli)" height="46.5938" style="stroke: #A80036; stroke-width: 1.5;" width="121" x="147.5" y="629.0625"/><text fill="#000000" font-family="sans-serif" font-size="14" lengthAdjust="spacingAndGlyphs" textLength="107" x="154.5" y="649.0576">REST Endpoint</text><text fill="#000000" font-family="sans-serif" font-size="14" lengthAdjust="spacingAndGlyphs" textLength="79" x="168.5" y="665.3545">(ACS Bean)</text><rect fill="#FEFECE" filter="url(#f15ky9wmixywli)" height="46.5938" style="stroke: #A80036; stroke-width: 1.5;" width="366" x="282.5" y="5"/><text fill="#000000" font-family="sans-serif" font-size="14" lengthAdjust="spacingAndGlyphs" textLength="96" x="417.5" y="24.9951">Service Layer</text><text fill="#000000" font-family="sans-serif" font-size="14" lengthAdjust="spacingAndGlyphs" textLength="352" x="289.5" y="41.292">(ACS ContentService or Nodes/Renditions beans)</text><rect fill="#FEFECE" filter="url(#f15ky9wmixywli)" height="46.5938" style="stroke: #A80036; stroke-width: 1.5;" width="366" x="282.5" y="629.0625"/><text fill="#000000" font-family="sans-serif" font-size="14" lengthAdjust="spacingAndGlyphs" textLength="96" x="417.5" y="649.0576">Service Layer</text><text fill="#000000" font-family="sans-serif" font-size="14" lengthAdjust="spacingAndGlyphs" textLength="352" x="289.5" y="665.3545">(ACS ContentService or Nodes/Renditions beans)</text><rect fill="#FFFFFF" filter="url(#f15ky9wmixywli)" height="71.2656" style="stroke: #A80036; stroke-width: 1.0;" width="10" x="205" y="111.8594"/><rect fill="#FFFFFF" filter="url(#f15ky9wmixywli)" height="129.5313" style="stroke: #A80036; stroke-width: 1.0;" width="10" x="205" y="277.0625"/><rect fill="#FFFFFF" filter="url(#f15ky9wmixywli)" height="129.5313" style="stroke: #A80036; stroke-width: 1.0;" width="10" x="205" y="475.5313"/><rect fill="#FFFFFF" filter="url(#f15ky9wmixywli)" height="29.1328" style="stroke: #A80036; stroke-width: 1.0;" width="10" x="462.5" y="348.3281"/><rect fill="#FFFFFF" filter="url(#f15ky9wmixywli)" height="29.1328" style="stroke: #A80036; stroke-width: 1.0;" width="10" x="462.5" y="546.7969"/><path d="M10,73.5938 L76,73.5938 L76,80.5938 L66,90.5938 L10,90.5938 L10,73.5938 " fill="#EEEEEE" style="stroke: #000000; stroke-width: 1.0;"/><rect fill="none" height="539.4688" style="stroke: #000000; stroke-width: 2.0;" width="652.5" x="10" y="73.5938"/><text fill="#000000" font-family="sans-serif" font-size="13" font-weight="bold" lengthAdjust="spacingAndGlyphs" textLength="21" x="25" y="86.6606">alt</text><text fill="#000000" font-family="sans-serif" font-size="11" font-weight="bold" lengthAdjust="spacingAndGlyphs" textLength="211" x="91" y="85.8042">[DAU is disabled (at REST level)]</text><polygon fill="#A80036" points="193,107.8594,203,111.8594,193,115.8594,197,111.8594" style="stroke: #A80036; stroke-width: 1.0;"/><line style="stroke: #A80036; stroke-width: 1.0;" x1="71" x2="199" y1="111.8594" y2="111.8594"/><text fill="#000000" font-family="sans-serif" font-size="13" lengthAdjust="spacingAndGlyphs" textLength="85" x="78" y="106.7935">Request DAU</text><line style="stroke: #A80036; stroke-width: 1.0;" x1="215" x2="257" y1="140.9922" y2="140.9922"/><line style="stroke: #A80036; stroke-width: 1.0;" x1="257" x2="257" y1="140.9922" y2="153.9922"/><line style="stroke: #A80036; stroke-width: 1.0;" x1="216" x2="257" y1="153.9922" y2="153.9922"/><polygon fill="#A80036" points="226,149.9922,216,153.9922,226,157.9922,222,153.9922" style="stroke: #A80036; stroke-width: 1.0;"/><text fill="#000000" font-family="sans-serif" font-size="13" lengthAdjust="spacingAndGlyphs" textLength="189" x="222" y="135.9263">Check if REST DAU is enabled</text><polygon fill="#A80036" points="82,179.125,72,183.125,82,187.125,78,183.125" style="stroke: #A80036; stroke-width: 1.0;"/><line style="stroke: #A80036; stroke-width: 1.0; stroke-dasharray: 2.0,2.0;" x1="76" x2="209" y1="183.125" y2="183.125"/><text fill="#000000" font-family="sans-serif" font-size="13" lengthAdjust="spacingAndGlyphs" textLength="110" x="88" y="178.0591">501 Unsupported</text><line style="stroke: #000000; stroke-width: 1.0; stroke-dasharray: 2.0,2.0;" x1="10" x2="662.5" y1="217.125" y2="217.125"/><text fill="#000000" font-family="sans-serif" font-size="11" font-weight="bold" lengthAdjust="spacingAndGlyphs" textLength="392" x="15" y="227.3354">[DAU is enabled at REST level but disabled or unsupported]</text><polygon fill="#A80036" points="193,273.0625,203,277.0625,193,281.0625,197,277.0625" style="stroke: #A80036; stroke-width: 1.0;"/><line style="stroke: #A80036; stroke-width: 1.0;" x1="71" x2="199" y1="277.0625" y2="277.0625"/><text fill="#000000" font-family="sans-serif" font-size="13" lengthAdjust="spacingAndGlyphs" textLength="85" x="78" y="271.9966">Request DAU</text><line style="stroke: #A80036; stroke-width: 1.0;" x1="215" x2="257" y1="306.1953" y2="306.1953"/><line style="stroke: #A80036; stroke-width: 1.0;" x1="257" x2="257" y1="306.1953" y2="319.1953"/><line style="stroke: #A80036; stroke-width: 1.0;" x1="216" x2="257" y1="319.1953" y2="319.1953"/><polygon fill="#A80036" points="226,315.1953,216,319.1953,226,323.1953,222,319.1953" style="stroke: #A80036; stroke-width: 1.0;"/><text fill="#000000" font-family="sans-serif" font-size="13" lengthAdjust="spacingAndGlyphs" textLength="189" x="222" y="301.1294">Check if REST DAU is enabled</text><polygon fill="#A80036" points="450.5,344.3281,460.5,348.3281,450.5,352.3281,454.5,348.3281" style="stroke: #A80036; stroke-width: 1.0;"/><line style="stroke: #A80036; stroke-width: 1.0;" x1="215" x2="456.5" y1="348.3281" y2="348.3281"/><text fill="#000000" font-family="sans-serif" font-size="13" lengthAdjust="spacingAndGlyphs" textLength="85" x="222" y="343.2622">Request DAU</text><polygon fill="#A80036" points="226,373.4609,216,377.4609,226,381.4609,222,377.4609" style="stroke: #A80036; stroke-width: 1.0;"/><line style="stroke: #A80036; stroke-width: 1.0; stroke-dasharray: 2.0,2.0;" x1="220" x2="466.5" y1="377.4609" y2="377.4609"/><text fill="#000000" font-family="sans-serif" font-size="13" lengthAdjust="spacingAndGlyphs" textLength="206" x="232" y="372.395">throw DisabledServiceException</text><polygon fill="#A80036" points="82,402.5938,72,406.5938,82,410.5938,78,406.5938" style="stroke: #A80036; stroke-width: 1.0;"/><line style="stroke: #A80036; stroke-width: 1.0; stroke-dasharray: 2.0,2.0;" x1="76" x2="209" y1="406.5938" y2="406.5938"/><text fill="#000000" font-family="sans-serif" font-size="13" lengthAdjust="spacingAndGlyphs" textLength="110" x="88" y="401.5278">501 Unsupported</text><line style="stroke: #000000; stroke-width: 1.0; stroke-dasharray: 2.0,2.0;" x1="10" x2="662.5" y1="440.5938" y2="440.5938"/><text fill="#000000" font-family="sans-serif" font-size="11" font-weight="bold" lengthAdjust="spacingAndGlyphs" textLength="209" x="15" y="450.8042">[DAU is enabled and supported]</text><polygon fill="#A80036" points="193,471.5313,203,475.5313,193,479.5313,197,475.5313" style="stroke: #A80036; stroke-width: 1.0;"/><line style="stroke: #A80036; stroke-width: 1.0;" x1="71" x2="199" y1="475.5313" y2="475.5313"/><text fill="#000000" font-family="sans-serif" font-size="13" lengthAdjust="spacingAndGlyphs" textLength="85" x="78" y="470.4653">Request DAU</text><line style="stroke: #A80036; stroke-width: 1.0;" x1="215" x2="257" y1="504.6641" y2="504.6641"/><line style="stroke: #A80036; stroke-width: 1.0;" x1="257" x2="257" y1="504.6641" y2="517.6641"/><line style="stroke: #A80036; stroke-width: 1.0;" x1="216" x2="257" y1="517.6641" y2="517.6641"/><polygon fill="#A80036" points="226,513.6641,216,517.6641,226,521.6641,222,517.6641" style="stroke: #A80036; stroke-width: 1.0;"/><text fill="#000000" font-family="sans-serif" font-size="13" lengthAdjust="spacingAndGlyphs" textLength="189" x="222" y="499.5981">Check if REST DAU is enabled</text><polygon fill="#A80036" points="450.5,542.7969,460.5,546.7969,450.5,550.7969,454.5,546.7969" style="stroke: #A80036; stroke-width: 1.0;"/><line style="stroke: #A80036; stroke-width: 1.0;" x1="215" x2="456.5" y1="546.7969" y2="546.7969"/><text fill="#000000" font-family="sans-serif" font-size="13" lengthAdjust="spacingAndGlyphs" textLength="85" x="222" y="541.731">Request DAU</text><polygon fill="#A80036" points="226,571.9297,216,575.9297,226,579.9297,222,575.9297" style="stroke: #A80036; stroke-width: 1.0;"/><line style="stroke: #A80036; stroke-width: 1.0; stroke-dasharray: 2.0,2.0;" x1="220" x2="466.5" y1="575.9297" y2="575.9297"/><text fill="#000000" font-family="sans-serif" font-size="13" lengthAdjust="spacingAndGlyphs" textLength="28" x="232" y="570.8638">DAU</text><polygon fill="#A80036" points="82,601.0625,72,605.0625,82,609.0625,78,605.0625" style="stroke: #A80036; stroke-width: 1.0;"/><line style="stroke: #A80036; stroke-width: 1.0; stroke-dasharray: 2.0,2.0;" x1="76" x2="209" y1="605.0625" y2="605.0625"/><text fill="#000000" font-family="sans-serif" font-size="13" lengthAdjust="spacingAndGlyphs" textLength="28" x="88" y="599.9966">DAU</text><!--MD5=[fb8b74da521f7de456cb1398952e4e48]
@startuml
participant "REST Client" as RC
participant "REST Endpoint\n(ACS Bean)" as EP
participant "Service Layer\n(ACS ContentService or Nodes/Renditions beans)" as SV


alt DAU is disabled (at REST level)
    RC -> EP ++ : Request DAU
    EP -> EP : Check if REST DAU is enabled
    return 501 Unsupported
|||
else DAU is enabled at REST level but disabled or unsupported
|||
    RC -> EP ++ : Request DAU
    EP -> EP : Check if REST DAU is enabled
    EP -> SV ++ : Request DAU
    return throw DisabledServiceException
    return 501 Unsupported
|||
else DAU is enabled and supported
    RC -> EP ++ : Request DAU
    EP -> EP : Check if REST DAU is enabled
    EP -> SV ++ : Request DAU
    return DAU
    return DAU
end
@enduml

PlantUML version 1.2020.20beta13(Unknown compile time)
(GPL source distribution)
Java Runtime: Java(TM) SE Runtime Environment
JVM: Java HotSpot(TM) 64-Bit Server VM
Default Encoding: UTF-8
Language: en
Country: US
--></g></svg>