<?xml version="1.0" encoding="UTF-8" standalone="no"?>
<svg xmlns="http://www.w3.org/2000/svg" xmlns:xlink="http://www.w3.org/1999/xlink" contentScriptType="application/ecmascript" contentStyleType="text/css" height="367px" preserveAspectRatio="none" style="width:389px;height:367px;" version="1.1" viewBox="0 0 389 367" width="389px" zoomAndPan="magnify"><defs><filter height="300%" id="f1v8wx159m6sul" width="300%" x="-1" y="-1"><feGaussianBlur result="blurOut" stdDeviation="2.0"/><feColorMatrix in="blurOut" result="blurOut2" type="matrix" values="0 0 0 0 0 0 0 0 0 0 0 0 0 0 0 0 0 0 .4 0"/><feOffset dx="4.0" dy="4.0" in="blurOut2" result="blurOut3"/><feBlend in="SourceGraphic" in2="blurOut3" mode="normal"/></filter></defs><g><!--MD5=[3f279d0f37863da36b0f14282ff2399e]
cluster org.alfresco.rest.api.model--><polygon fill="#FFFFFF" filter="url(#f1v8wx159m6sul)" points="16,6,242,6,249,28.2969,372,28.2969,372,360,16,360,16,6" style="stroke: #000000; stroke-width: 1.5;"/><line style="stroke: #000000; stroke-width: 1.5;" x1="16" x2="249" y1="28.2969" y2="28.2969"/><text fill="#000000" font-family="sans-serif" font-size="14" font-weight="bold" lengthAdjust="spacingAndGlyphs" textLength="220" x="20" y="20.9951">org.alfresco.rest.api.model</text><!--MD5=[5c2eb264d4d067ea7f893ee71ad7bb3f]
class DiscoveryDetails--><rect codeLine="2" fill="#FEFECE" filter="url(#f1v8wx159m6sul)" height="60.8047" id="DiscoveryDetails" style="stroke: #A80036; stroke-width: 1.5;" width="157" x="58.5" y="41"/><ellipse cx="83.85" cy="57" fill="#ADD1B2" rx="11" ry="11" style="stroke: #A80036; stroke-width: 1.0;"/><path d="M86.1938,52.6719 C85.2563,52.2344 84.6625,52.0938 83.7875,52.0938 C81.1625,52.0938 79.1625,54.1719 79.1625,56.8906 L79.1625,58.0156 C79.1625,60.5938 81.2719,62.4844 84.1625,62.4844 C85.3813,62.4844 86.5375,62.1875 87.2875,61.6406 C87.8656,61.2344 88.1938,60.7813 88.1938,60.3906 C88.1938,59.9375 87.8031,59.5469 87.3344,59.5469 C87.1156,59.5469 86.9125,59.625 86.725,59.8125 C86.2719,60.2969 86.2719,60.2969 86.0844,60.3906 C85.6625,60.6563 84.975,60.7813 84.2094,60.7813 C82.1625,60.7813 80.8656,59.6875 80.8656,57.9844 L80.8656,56.8906 C80.8656,55.1094 82.1156,53.7969 83.85,53.7969 C84.4281,53.7969 85.0375,53.9531 85.5063,54.2031 C85.9906,54.4844 86.1625,54.7031 86.2563,55.1094 C86.3188,55.5156 86.35,55.6406 86.4906,55.7656 C86.6313,55.9063 86.8656,56.0156 87.0844,56.0156 C87.35,56.0156 87.6156,55.875 87.7875,55.6563 C87.8969,55.5 87.9281,55.3125 87.9281,54.8906 L87.9281,53.4688 C87.9281,53.0313 87.9125,52.9063 87.8188,52.75 C87.6625,52.4844 87.3813,52.3438 87.0844,52.3438 C86.7875,52.3438 86.5844,52.4375 86.3656,52.75 L86.1938,52.6719 Z " fill="#000000"/><text fill="#000000" font-family="sans-serif" font-size="12" lengthAdjust="spacingAndGlyphs" textLength="102" x="100.15" y="61.1543">DiscoveryDetails</text><line style="stroke: #A80036; stroke-width: 1.5;" x1="59.5" x2="214.5" y1="73" y2="73"/><text fill="#000000" font-family="sans-serif" font-size="11" lengthAdjust="spacingAndGlyphs" textLength="145" x="64.5" y="87.2104">repository: RepositoryInfo</text><line style="stroke: #A80036; stroke-width: 1.5;" x1="59.5" x2="214.5" y1="93.8047" y2="93.8047"/><!--MD5=[08ca5654ff6738f50e0cc610b5d8fb9a]
class RepositoryInfo--><rect codeLine="6" fill="#FEFECE" filter="url(#f1v8wx159m6sul)" height="60.8047" id="RepositoryInfo" style="stroke: #A80036; stroke-width: 1.5;" width="119" x="77.5" y="162"/><ellipse cx="92.5" cy="178" fill="#ADD1B2" rx="11" ry="11" style="stroke: #A80036; stroke-width: 1.0;"/><path d="M94.8438,173.6719 C93.9063,173.2344 93.3125,173.0938 92.4375,173.0938 C89.8125,173.0938 87.8125,175.1719 87.8125,177.8906 L87.8125,179.0156 C87.8125,181.5938 89.9219,183.4844 92.8125,183.4844 C94.0313,183.4844 95.1875,183.1875 95.9375,182.6406 C96.5156,182.2344 96.8438,181.7813 96.8438,181.3906 C96.8438,180.9375 96.4531,180.5469 95.9844,180.5469 C95.7656,180.5469 95.5625,180.625 95.375,180.8125 C94.9219,181.2969 94.9219,181.2969 94.7344,181.3906 C94.3125,181.6563 93.625,181.7813 92.8594,181.7813 C90.8125,181.7813 89.5156,180.6875 89.5156,178.9844 L89.5156,177.8906 C89.5156,176.1094 90.7656,174.7969 92.5,174.7969 C93.0781,174.7969 93.6875,174.9531 94.1563,175.2031 C94.6406,175.4844 94.8125,175.7031 94.9063,176.1094 C94.9688,176.5156 95,176.6406 95.1406,176.7656 C95.2813,176.9063 95.5156,177.0156 95.7344,177.0156 C96,177.0156 96.2656,176.875 96.4375,176.6563 C96.5469,176.5 96.5781,176.3125 96.5781,175.8906 L96.5781,174.4688 C96.5781,174.0313 96.5625,173.9063 96.4688,173.75 C96.3125,173.4844 96.0313,173.3438 95.7344,173.3438 C95.4375,173.3438 95.2344,173.4375 95.0156,173.75 L94.8438,173.6719 Z " fill="#000000"/><text fill="#000000" font-family="sans-serif" font-size="12" lengthAdjust="spacingAndGlyphs" textLength="87" x="106.5" y="182.1543">RepositoryInfo</text><line style="stroke: #A80036; stroke-width: 1.5;" x1="78.5" x2="195.5" y1="194" y2="194"/><text fill="#000000" font-family="sans-serif" font-size="11" lengthAdjust="spacingAndGlyphs" textLength="98" x="83.5" y="208.2104">status: StatusInfo</text><line style="stroke: #A80036; stroke-width: 1.5;" x1="78.5" x2="195.5" y1="214.8047" y2="214.8047"/><!--MD5=[20beb10881f74cbe69546ffabb3900f4]
class StatusInfo--><rect codeLine="11" fill="#FEFECE" filter="url(#f1v8wx159m6sul)" height="60.8047" id="StatusInfo" style="stroke: #A80036; stroke-width: 1.5;" width="209" x="32.5" y="283"/><ellipse cx="103.25" cy="299" fill="#ADD1B2" rx="11" ry="11" style="stroke: #A80036; stroke-width: 1.0;"/><path d="M105.5938,294.6719 C104.6563,294.2344 104.0625,294.0938 103.1875,294.0938 C100.5625,294.0938 98.5625,296.1719 98.5625,298.8906 L98.5625,300.0156 C98.5625,302.5938 100.6719,304.4844 103.5625,304.4844 C104.7813,304.4844 105.9375,304.1875 106.6875,303.6406 C107.2656,303.2344 107.5938,302.7813 107.5938,302.3906 C107.5938,301.9375 107.2031,301.5469 106.7344,301.5469 C106.5156,301.5469 106.3125,301.625 106.125,301.8125 C105.6719,302.2969 105.6719,302.2969 105.4844,302.3906 C105.0625,302.6563 104.375,302.7813 103.6094,302.7813 C101.5625,302.7813 100.2656,301.6875 100.2656,299.9844 L100.2656,298.8906 C100.2656,297.1094 101.5156,295.7969 103.25,295.7969 C103.8281,295.7969 104.4375,295.9531 104.9063,296.2031 C105.3906,296.4844 105.5625,296.7031 105.6563,297.1094 C105.7188,297.5156 105.75,297.6406 105.8906,297.7656 C106.0313,297.9063 106.2656,298.0156 106.4844,298.0156 C106.75,298.0156 107.0156,297.875 107.1875,297.6563 C107.2969,297.5 107.3281,297.3125 107.3281,296.8906 L107.3281,295.4688 C107.3281,295.0313 107.3125,294.9063 107.2188,294.75 C107.0625,294.4844 106.7813,294.3438 106.4844,294.3438 C106.1875,294.3438 105.9844,294.4375 105.7656,294.75 L105.5938,294.6719 Z " fill="#000000"/><text fill="#000000" font-family="sans-serif" font-size="12" lengthAdjust="spacingAndGlyphs" textLength="59" x="123.75" y="303.1543">StatusInfo</text><line style="stroke: #A80036; stroke-width: 1.5;" x1="33.5" x2="240.5" y1="315" y2="315"/><text fill="#000000" font-family="sans-serif" font-size="11" lengthAdjust="spacingAndGlyphs" textLength="197" x="38.5" y="329.2104">isDirectAccessUrlEnabled: boolean</text><line style="stroke: #A80036; stroke-width: 1.5;" x1="33.5" x2="240.5" y1="335.8047" y2="335.8047"/><path d="M276.5,301 L276.5,309.5 L241.533,313.5 L276.5,317.5 L276.5,326.1328 A0,0 0 0 0 276.5,326.1328 L355.5,326.1328 A0,0 0 0 0 355.5,326.1328 L355.5,311 L345.5,301 L276.5,301 A0,0 0 0 0 276.5,301 " fill="#FBFB77" filter="url(#f1v8wx159m6sul)" style="stroke: #A80036; stroke-width: 1.0;"/><path d="M345.5,301 L345.5,311 L355.5,311 L345.5,301 " fill="#FBFB77" style="stroke: #A80036; stroke-width: 1.0;"/><text fill="#000000" font-family="sans-serif" font-size="13" lengthAdjust="spacingAndGlyphs" textLength="58" x="282.5" y="318.0669">new field</text><!--MD5=[f88e613f8b9d37c74250279149db3a5b]
reverse link DiscoveryDetails to RepositoryInfo--><path codeLine="9" d="M137,115.228 C137,130.638 137,147.683 137,161.745 " fill="none" id="DiscoveryDetails-backto-RepositoryInfo" style="stroke: #A80036; stroke-width: 1.0;"/><polygon fill="#A80036" points="137,102.222,133,108.222,137,114.222,141,108.222,137,102.222" style="stroke: #A80036; stroke-width: 1.0;"/><!--MD5=[7c8ef56866e87db72243c4d5ac4f4bcd]
reverse link RepositoryInfo to StatusInfo--><path codeLine="15" d="M137,236.228 C137,251.638 137,268.683 137,282.7447 " fill="none" id="RepositoryInfo-backto-StatusInfo" style="stroke: #A80036; stroke-width: 1.0;"/><polygon fill="#A80036" points="137,223.222,133,229.222,137,235.222,141,229.222,137,223.222" style="stroke: #A80036; stroke-width: 1.0;"/><!--MD5=[6d15ba3279b2bce6bc440862ea56dc29]
@startuml
package org.alfresco.rest.api.model {
    class DiscoveryDetails {
        repository: RepositoryInfo
    }
    
    class RepositoryInfo {
        status: StatusInfo
    }
    DiscoveryDetails *- - RepositoryInfo
    
    class StatusInfo {
        isDirectAccessUrlEnabled: boolean
    }
    note right : new field
    RepositoryInfo *- - StatusInfo
}
@enduml

PlantUML version 1.2020.20beta13(Unknown compile time)
(GPL source distribution)
Java Runtime: Java(TM) SE Runtime Environment
JVM: Java HotSpot(TM) 64-Bit Server VM
Default Encoding: UTF-8
Language: en
Country: US
--></g></svg>