<?xml version="1.0" encoding="UTF-8" standalone="no"?>
<svg xmlns="http://www.w3.org/2000/svg" xmlns:xlink="http://www.w3.org/1999/xlink" contentScriptType="application/ecmascript" contentStyleType="text/css" height="150px" preserveAspectRatio="none" style="width:1451px;height:150px;" version="1.1" viewBox="0 0 1451 150" width="1451px" zoomAndPan="magnify"><defs><filter height="300%" id="f82kz1769lyl" width="300%" x="-1" y="-1"><feGaussianBlur result="blurOut" stdDeviation="2.0"/><feColorMatrix in="blurOut" result="blurOut2" type="matrix" values="0 0 0 0 0 0 0 0 0 0 0 0 0 0 0 0 0 0 .4 0"/><feOffset dx="4.0" dy="4.0" in="blurOut2" result="blurOut3"/><feBlend in="SourceGraphic" in2="blurOut3" mode="normal"/></filter></defs><g><!--MD5=[0d712c1a1d55b119e1fe8ff0f23459cf]
cluster org.alfresco.integrations.connector--><polygon fill="#FFFFFF" filter="url(#f82kz1769lyl)" points="16,6,313,6,320,28.2969,1434,28.2969,1434,143,16,143,16,6" style="stroke: #000000; stroke-width: 1.5;"/><line style="stroke: #000000; stroke-width: 1.5;" x1="16" x2="320" y1="28.2969" y2="28.2969"/><text fill="#000000" font-family="sans-serif" font-size="14" font-weight="bold" lengthAdjust="spacingAndGlyphs" textLength="291" x="20" y="20.9951">org.alfresco.integrations.connector</text><!--MD5=[703120542b8170174e3cd602671ff97c]
class AmazonS3ServiceAdapter--><rect codeLine="2" fill="#FEFECE" filter="url(#f82kz1769lyl)" height="60.8047" id="AmazonS3ServiceAdapter" style="stroke: #A80036; stroke-width: 1.5;" width="675" x="742.5" y="53.5"/><ellipse cx="996.75" cy="69.5" fill="#ADD1B2" rx="11" ry="11" style="stroke: #A80036; stroke-width: 1.0;"/><path d="M999.0938,65.1719 C998.1563,64.7344 997.5625,64.5938 996.6875,64.5938 C994.0625,64.5938 992.0625,66.6719 992.0625,69.3906 L992.0625,70.5156 C992.0625,73.0938 994.1719,74.9844 997.0625,74.9844 C998.2813,74.9844 999.4375,74.6875 1000.1875,74.1406 C1000.7656,73.7344 1001.0938,73.2813 1001.0938,72.8906 C1001.0938,72.4375 1000.7031,72.0469 1000.2344,72.0469 C1000.0156,72.0469 999.8125,72.125 999.625,72.3125 C999.1719,72.7969 999.1719,72.7969 998.9844,72.8906 C998.5625,73.1563 997.875,73.2813 997.1094,73.2813 C995.0625,73.2813 993.7656,72.1875 993.7656,70.4844 L993.7656,69.3906 C993.7656,67.6094 995.0156,66.2969 996.75,66.2969 C997.3281,66.2969 997.9375,66.4531 998.4063,66.7031 C998.8906,66.9844 999.0625,67.2031 999.1563,67.6094 C999.2188,68.0156 999.25,68.1406 999.3906,68.2656 C999.5313,68.4063 999.7656,68.5156 999.9844,68.5156 C1000.25,68.5156 1000.5156,68.375 1000.6875,68.1563 C1000.7969,68 1000.8281,67.8125 1000.8281,67.3906 L1000.8281,65.9688 C1000.8281,65.5313 1000.8125,65.4063 1000.7188,65.25 C1000.5625,64.9844 1000.2813,64.8438 999.9844,64.8438 C999.6875,64.8438 999.4844,64.9375 999.2656,65.25 L999.0938,65.1719 Z " fill="#000000"/><text fill="#000000" font-family="sans-serif" font-size="12" lengthAdjust="spacingAndGlyphs" textLength="158" x="1017.25" y="73.6543">AmazonS3ServiceAdapter</text><line style="stroke: #A80036; stroke-width: 1.5;" x1="743.5" x2="1416.5" y1="85.5" y2="85.5"/><line style="stroke: #A80036; stroke-width: 1.5;" x1="743.5" x2="1416.5" y1="93.5" y2="93.5"/><ellipse cx="753.5" cy="104.5" fill="#84BE84" rx="3" ry="3" style="stroke: #038048; stroke-width: 1.0;"/><text fill="#000000" font-family="sans-serif" font-size="11" lengthAdjust="spacingAndGlyphs" textLength="649" x="762.5" y="107.7104">requestContentDirectUrl(contentUrl: String, attachment: boolean, fileName: String, validFor: Long): DirectAccessUrl</text><!--MD5=[27b0043d1c7df5f977e579f9a6f17c17]
class S3ContentStore--><rect codeLine="6" fill="#FEFECE" filter="url(#f82kz1769lyl)" height="86.4141" id="S3ContentStore" style="stroke: #A80036; stroke-width: 1.5;" width="675" x="32.5" y="41"/><ellipse cx="318.25" cy="57" fill="#ADD1B2" rx="11" ry="11" style="stroke: #A80036; stroke-width: 1.0;"/><path d="M320.5938,52.6719 C319.6563,52.2344 319.0625,52.0938 318.1875,52.0938 C315.5625,52.0938 313.5625,54.1719 313.5625,56.8906 L313.5625,58.0156 C313.5625,60.5938 315.6719,62.4844 318.5625,62.4844 C319.7813,62.4844 320.9375,62.1875 321.6875,61.6406 C322.2656,61.2344 322.5938,60.7813 322.5938,60.3906 C322.5938,59.9375 322.2031,59.5469 321.7344,59.5469 C321.5156,59.5469 321.3125,59.625 321.125,59.8125 C320.6719,60.2969 320.6719,60.2969 320.4844,60.3906 C320.0625,60.6563 319.375,60.7813 318.6094,60.7813 C316.5625,60.7813 315.2656,59.6875 315.2656,57.9844 L315.2656,56.8906 C315.2656,55.1094 316.5156,53.7969 318.25,53.7969 C318.8281,53.7969 319.4375,53.9531 319.9063,54.2031 C320.3906,54.4844 320.5625,54.7031 320.6563,55.1094 C320.7188,55.5156 320.75,55.6406 320.8906,55.7656 C321.0313,55.9063 321.2656,56.0156 321.4844,56.0156 C321.75,56.0156 322.0156,55.875 322.1875,55.6563 C322.2969,55.5 322.3281,55.3125 322.3281,54.8906 L322.3281,53.4688 C322.3281,53.0313 322.3125,52.9063 322.2188,52.75 C322.0625,52.4844 321.7813,52.3438 321.4844,52.3438 C321.1875,52.3438 320.9844,52.4375 320.7656,52.75 L320.5938,52.6719 Z " fill="#000000"/><text fill="#000000" font-family="sans-serif" font-size="12" lengthAdjust="spacingAndGlyphs" textLength="95" x="338.75" y="61.1543">S3ContentStore</text><line style="stroke: #A80036; stroke-width: 1.5;" x1="33.5" x2="706.5" y1="73" y2="73"/><line style="stroke: #A80036; stroke-width: 1.5;" x1="33.5" x2="706.5" y1="81" y2="81"/><ellipse cx="43.5" cy="92" fill="#84BE84" rx="3" ry="3" style="stroke: #038048; stroke-width: 1.0;"/><text fill="#000000" font-family="sans-serif" font-size="11" lengthAdjust="spacingAndGlyphs" textLength="210" x="52.5" y="95.2104">isContentDirectUrlEnabled(): boolean</text><ellipse cx="43.5" cy="104.8047" fill="#84BE84" rx="3" ry="3" style="stroke: #038048; stroke-width: 1.0;"/><text fill="#000000" font-family="sans-serif" font-size="11" lengthAdjust="spacingAndGlyphs" textLength="308" x="52.5" y="108.0151">isContentDirectUrlEnabled(contentUrl: String): boolean</text><ellipse cx="43.5" cy="117.6094" fill="#84BE84" rx="3" ry="3" style="stroke: #038048; stroke-width: 1.0;"/><text fill="#000000" font-family="sans-serif" font-size="11" lengthAdjust="spacingAndGlyphs" textLength="649" x="52.5" y="120.8198">requestContentDirectUrl(contentUrl: String, attachment: boolean, fileName: String, validFor: Long): DirectAccessUrl</text><!--MD5=[2f77a38aeff01a91ea7ef3ae7d36aa0b]
@startuml
package org.alfresco.integrations.connector {
    class AmazonS3ServiceAdapter {
        +requestContentDirectUrl(contentUrl: String, attachment: boolean, fileName: String, validFor: Long): DirectAccessUrl
    }
    
    class S3ContentStore {
        +isContentDirectUrlEnabled(): boolean
        +isContentDirectUrlEnabled(contentUrl: String): boolean
        +requestContentDirectUrl(contentUrl: String, attachment: boolean, fileName: String, validFor: Long): DirectAccessUrl
    }
}
@enduml

PlantUML version 1.2020.20beta13(Unknown compile time)
(GPL source distribution)
Java Runtime: Java(TM) SE Runtime Environment
JVM: Java HotSpot(TM) 64-Bit Server VM
Default Encoding: UTF-8
Language: en
Country: US
--></g></svg>