<?xml version="1.0" encoding="UTF-8" standalone="no"?>
<svg xmlns="http://www.w3.org/2000/svg" xmlns:xlink="http://www.w3.org/1999/xlink" contentScriptType="application/ecmascript" contentStyleType="text/css" height="210px" preserveAspectRatio="none" style="width:1540px;height:210px;" version="1.1" viewBox="0 0 1540 210" width="1540px" zoomAndPan="magnify"><defs><filter height="300%" id="fb0fork8nz13o" width="300%" x="-1" y="-1"><feGaussianBlur result="blurOut" stdDeviation="2.0"/><feColorMatrix in="blurOut" result="blurOut2" type="matrix" values="0 0 0 0 0 0 0 0 0 0 0 0 0 0 0 0 0 0 .4 0"/><feOffset dx="4.0" dy="4.0" in="blurOut2" result="blurOut3"/><feBlend in="SourceGraphic" in2="blurOut3" mode="normal"/></filter></defs><g><!--MD5=[30f4146031c8d02ec39a0a3f72601e8b]
cluster org.alfresco.rest.api.nodes--><polygon fill="#FFFFFF" filter="url(#fb0fork8nz13o)" points="16,6,241,6,248,28.2969,1523,28.2969,1523,203,16,203,16,6" style="stroke: #000000; stroke-width: 1.5;"/><line style="stroke: #000000; stroke-width: 1.5;" x1="16" x2="248" y1="28.2969" y2="28.2969"/><text fill="#000000" font-family="sans-serif" font-size="14" font-weight="bold" lengthAdjust="spacingAndGlyphs" textLength="219" x="20" y="20.9951">org.alfresco.rest.api.nodes</text><!--MD5=[4d7cb011fef06dc9c7b0e05d311c49c0]
class TrashcanEntityResource--><rect codeLine="5" fill="#FEFECE" filter="url(#fb0fork8nz13o)" height="60.8047" id="TrashcanEntityResource" style="stroke: #A80036; stroke-width: 1.5;" width="666" x="32" y="126"/><ellipse cx="289.25" cy="142" fill="#ADD1B2" rx="11" ry="11" style="stroke: #A80036; stroke-width: 1.0;"/><path d="M291.5938,137.6719 C290.6563,137.2344 290.0625,137.0938 289.1875,137.0938 C286.5625,137.0938 284.5625,139.1719 284.5625,141.8906 L284.5625,143.0156 C284.5625,145.5938 286.6719,147.4844 289.5625,147.4844 C290.7813,147.4844 291.9375,147.1875 292.6875,146.6406 C293.2656,146.2344 293.5938,145.7813 293.5938,145.3906 C293.5938,144.9375 293.2031,144.5469 292.7344,144.5469 C292.5156,144.5469 292.3125,144.625 292.125,144.8125 C291.6719,145.2969 291.6719,145.2969 291.4844,145.3906 C291.0625,145.6563 290.375,145.7813 289.6094,145.7813 C287.5625,145.7813 286.2656,144.6875 286.2656,142.9844 L286.2656,141.8906 C286.2656,140.1094 287.5156,138.7969 289.25,138.7969 C289.8281,138.7969 290.4375,138.9531 290.9063,139.2031 C291.3906,139.4844 291.5625,139.7031 291.6563,140.1094 C291.7188,140.5156 291.75,140.6406 291.8906,140.7656 C292.0313,140.9063 292.2656,141.0156 292.4844,141.0156 C292.75,141.0156 293.0156,140.875 293.1875,140.6563 C293.2969,140.5 293.3281,140.3125 293.3281,139.8906 L293.3281,138.4688 C293.3281,138.0313 293.3125,137.9063 293.2188,137.75 C293.0625,137.4844 292.7813,137.3438 292.4844,137.3438 C292.1875,137.3438 291.9844,137.4375 291.7656,137.75 L291.5938,137.6719 Z " fill="#000000"/><text fill="#000000" font-family="sans-serif" font-size="12" lengthAdjust="spacingAndGlyphs" textLength="143" x="309.75" y="146.1543">TrashcanEntityResource</text><line style="stroke: #A80036; stroke-width: 1.5;" x1="33" x2="697" y1="158" y2="158"/><line style="stroke: #A80036; stroke-width: 1.5;" x1="33" x2="697" y1="166" y2="166"/><ellipse cx="43" cy="177" fill="#84BE84" rx="3" ry="3" style="stroke: #038048; stroke-width: 1.0;"/><text fill="#000000" font-family="sans-serif" font-size="11" lengthAdjust="spacingAndGlyphs" textLength="640" x="52" y="180.2104">requestContentDirectUrl(nodeId: String, parameters: Parameters, withResponse: WithResponse): DirectAccessUrl</text><path d="M161.5,41 L161.5,66.1328 A0,0 0 0 0 161.5,66.1328 L361,66.1328 L365,125.9981 L369,66.1328 L568.5,66.1328 A0,0 0 0 0 568.5,66.1328 L568.5,51 L558.5,41 L161.5,41 A0,0 0 0 0 161.5,41 " fill="#FBFB77" filter="url(#fb0fork8nz13o)" style="stroke: #A80036; stroke-width: 1.0;"/><path d="M558.5,41 L558.5,51 L568.5,51 L558.5,41 " fill="#FBFB77" style="stroke: #A80036; stroke-width: 1.0;"/><text fill="#000000" font-family="sans-serif" font-size="13" lengthAdjust="spacingAndGlyphs" textLength="386" x="167.5" y="58.0669">REST API /deleted-nodes/{nodeId}/request-direct-access-url</text><!--MD5=[518b8dcff0363dad6ef1f3f935ec8a5a]
class TrashcanRenditionsRelation--><rect codeLine="10" fill="#FEFECE" filter="url(#fb0fork8nz13o)" height="60.8047" id="TrashcanRenditionsRelation" style="stroke: #A80036; stroke-width: 1.5;" width="773" x="733.5" y="126"/><ellipse cx="1034.25" cy="142" fill="#ADD1B2" rx="11" ry="11" style="stroke: #A80036; stroke-width: 1.0;"/><path d="M1036.5938,137.6719 C1035.6563,137.2344 1035.0625,137.0938 1034.1875,137.0938 C1031.5625,137.0938 1029.5625,139.1719 1029.5625,141.8906 L1029.5625,143.0156 C1029.5625,145.5938 1031.6719,147.4844 1034.5625,147.4844 C1035.7813,147.4844 1036.9375,147.1875 1037.6875,146.6406 C1038.2656,146.2344 1038.5938,145.7813 1038.5938,145.3906 C1038.5938,144.9375 1038.2031,144.5469 1037.7344,144.5469 C1037.5156,144.5469 1037.3125,144.625 1037.125,144.8125 C1036.6719,145.2969 1036.6719,145.2969 1036.4844,145.3906 C1036.0625,145.6563 1035.375,145.7813 1034.6094,145.7813 C1032.5625,145.7813 1031.2656,144.6875 1031.2656,142.9844 L1031.2656,141.8906 C1031.2656,140.1094 1032.5156,138.7969 1034.25,138.7969 C1034.8281,138.7969 1035.4375,138.9531 1035.9063,139.2031 C1036.3906,139.4844 1036.5625,139.7031 1036.6563,140.1094 C1036.7188,140.5156 1036.75,140.6406 1036.8906,140.7656 C1037.0313,140.9063 1037.2656,141.0156 1037.4844,141.0156 C1037.75,141.0156 1038.0156,140.875 1038.1875,140.6563 C1038.2969,140.5 1038.3281,140.3125 1038.3281,139.8906 L1038.3281,138.4688 C1038.3281,138.0313 1038.3125,137.9063 1038.2188,137.75 C1038.0625,137.4844 1037.7813,137.3438 1037.4844,137.3438 C1037.1875,137.3438 1036.9844,137.4375 1036.7656,137.75 L1036.5938,137.6719 Z " fill="#000000"/><text fill="#000000" font-family="sans-serif" font-size="12" lengthAdjust="spacingAndGlyphs" textLength="163" x="1054.75" y="146.1543">TrashcanRenditionsRelation</text><line style="stroke: #A80036; stroke-width: 1.5;" x1="734.5" x2="1505.5" y1="158" y2="158"/><line style="stroke: #A80036; stroke-width: 1.5;" x1="734.5" x2="1505.5" y1="166" y2="166"/><ellipse cx="744.5" cy="177" fill="#84BE84" rx="3" ry="3" style="stroke: #038048; stroke-width: 1.0;"/><text fill="#000000" font-family="sans-serif" font-size="11" lengthAdjust="spacingAndGlyphs" textLength="747" x="753.5" y="180.2104">requestContentDirectUrl(nodeId: String, renditionId: String, parameters: Parameters, withResponse: WithResponse): DirectAccessUrl</text><path d="M838.5,41 L838.5,66.1328 A0,0 0 0 0 838.5,66.1328 L1116,66.1328 L1120,125.9981 L1124,66.1328 L1401.5,66.1328 A0,0 0 0 0 1401.5,66.1328 L1401.5,51 L1391.5,41 L838.5,41 A0,0 0 0 0 838.5,41 " fill="#FBFB77" filter="url(#fb0fork8nz13o)" style="stroke: #A80036; stroke-width: 1.0;"/><path d="M1391.5,41 L1391.5,51 L1401.5,51 L1391.5,41 " fill="#FBFB77" style="stroke: #A80036; stroke-width: 1.0;"/><text fill="#000000" font-family="sans-serif" font-size="13" lengthAdjust="spacingAndGlyphs" textLength="542" x="844.5" y="58.0669">REST API /deleted-nodes/{nodeId}/renditions/{renditionId}/request-direct-access-url</text><!--MD5=[5a26f7fef4487698c2699cd9f088d929]
link TrashcanEntityResource to TrashcanRenditionsRelation--><!--MD5=[01ac5bdc8cbd9ca8850f092ece96a5bd]
@startuml
package org.alfresco.rest.api.nodes {


    note top of TrashcanEntityResource: REST API /deleted-nodes/{nodeId}/request-direct-access-url
    class TrashcanEntityResource {
        +requestContentDirectUrl(nodeId: String, parameters: Parameters, withResponse: WithResponse): DirectAccessUrl
    }

    note top of TrashcanRenditionsRelation: REST API /deleted-nodes/{nodeId}/renditions/{renditionId}/request-direct-access-url
    class TrashcanRenditionsRelation {
        +requestContentDirectUrl(nodeId: String, renditionId: String, parameters: Parameters, withResponse: WithResponse): DirectAccessUrl
    }
}

TrashcanEntityResource -[hidden]> TrashcanRenditionsRelation
@enduml

PlantUML version 1.2020.20beta13(Unknown compile time)
(GPL source distribution)
Java Runtime: Java(TM) SE Runtime Environment
JVM: Java HotSpot(TM) 64-Bit Server VM
Default Encoding: UTF-8
Language: en
Country: US
--></g></svg>