<?xml version="1.0" encoding="UTF-8" standalone="no"?><svg xmlns="http://www.w3.org/2000/svg" xmlns:xlink="http://www.w3.org/1999/xlink" contentScriptType="application/ecmascript" contentStyleType="text/css" height="274px" preserveAspectRatio="none" style="width:1637px;height:274px;" version="1.1" viewBox="0 0 1637 274" width="1637px" zoomAndPan="magnify"><defs><filter height="300%" id="fwwjjgge98hvi" width="300%" x="-1" y="-1"><feGaussianBlur result="blurOut" stdDeviation="2.0"/><feColorMatrix in="blurOut" result="blurOut2" type="matrix" values="0 0 0 0 0 0 0 0 0 0 0 0 0 0 0 0 0 0 .4 0"/><feOffset dx="4.0" dy="4.0" in="blurOut2" result="blurOut3"/><feBlend in="SourceGraphic" in2="blurOut3" mode="normal"/></filter></defs><g><!--MD5=[3dcc5f525b37d1444fba6049027caef1]
cluster org.alfresco.rest.api--><polygon fill="#FFFFFF" filter="url(#fwwjjgge98hvi)" points="16,6,188,6,195,28.2969,1620,28.2969,1620,131,16,131,16,6" style="stroke: #000000; stroke-width: 1.5;"/><line style="stroke: #000000; stroke-width: 1.5;" x1="16" x2="195" y1="28.2969" y2="28.2969"/><text fill="#000000" font-family="sans-serif" font-size="14" font-weight="bold" lengthAdjust="spacingAndGlyphs" textLength="166" x="20" y="20.9951">org.alfresco.rest.api</text><!--MD5=[cf8171beeaf662f356ec02828b42521f]
cluster org.alfresco.rest.api.impl--><polygon fill="#FFFFFF" filter="url(#fwwjjgge98hvi)" points="17,155,229,155,236,177.2969,1617,177.2969,1617,267,17,267,17,155" style="stroke: #000000; stroke-width: 1.5;"/><line style="stroke: #000000; stroke-width: 1.5;" x1="17" x2="236" y1="177.2969" y2="177.2969"/><text fill="#000000" font-family="sans-serif" font-size="14" font-weight="bold" lengthAdjust="spacingAndGlyphs" textLength="206" x="21" y="169.9951">org.alfresco.rest.api.impl</text><!--MD5=[85c68d1f87505dce9bc362d94e3e592c]
class Nodes--><rect codeLine="2" fill="#FEFECE" filter="url(#fwwjjgge98hvi)" height="73.6094" id="Nodes" style="stroke: #A80036; stroke-width: 1.5;" width="663" x="32.5" y="41"/><ellipse cx="341.25" cy="57" fill="#B4A7E5" rx="11" ry="11" style="stroke: #A80036; stroke-width: 1.0;"/><path d="M342.2031,53.7813 L343.9219,53.7813 C344.3125,53.7813 344.5,53.75 344.625,53.6719 C344.8906,53.5156 345.0313,53.2344 345.0313,52.9375 C345.0313,52.6719 344.9219,52.4063 344.6875,52.2344 C344.5156,52.125 344.375,52.0938 343.9219,52.0938 L338.7813,52.0938 C338.3438,52.0938 338.2188,52.1094 338.0625,52.2031 C337.8125,52.3594 337.6563,52.6563 337.6563,52.9375 C337.6563,53.2188 337.7969,53.4688 338.0156,53.6406 C338.1719,53.75 338.3594,53.7813 338.7813,53.7813 L340.5,53.7813 L340.5,60.2969 L338.7813,60.2969 C338.3438,60.2969 338.2188,60.3125 338.0625,60.4219 C337.8125,60.5781 337.6563,60.8594 337.6563,61.1563 C337.6563,61.4063 337.7969,61.6719 338.0156,61.8281 C338.1719,61.9531 338.375,62 338.7813,62 L343.9219,62 C344.6719,62 345.0313,61.7188 345.0313,61.1563 C345.0313,60.875 344.9219,60.625 344.6875,60.4531 C344.5156,60.3281 344.375,60.2969 343.9219,60.2969 L342.2031,60.2969 L342.2031,53.7813 Z " fill="#000000"/><text fill="#000000" font-family="sans-serif" font-size="12" font-style="italic" lengthAdjust="spacingAndGlyphs" textLength="37" x="361.75" y="61.1543">Nodes</text><line style="stroke: #A80036; stroke-width: 1.5;" x1="33.5" x2="694.5" y1="73" y2="73"/><line style="stroke: #A80036; stroke-width: 1.5;" x1="33.5" x2="694.5" y1="81" y2="81"/><ellipse cx="43.5" cy="92" fill="#84BE84" rx="3" ry="3" style="stroke: #038048; stroke-width: 1.0;"/><text fill="#000000" font-family="sans-serif" font-size="11" lengthAdjust="spacingAndGlyphs" textLength="612" x="52.5" y="95.2104">requestContentDirectUrl(nodeId: String, attachment: boolean, validForOp: Optional&lt;Long&gt;): DirectAccessUrl</text><ellipse cx="43.5" cy="104.8047" fill="#84BE84" rx="3" ry="3" style="stroke: #038048; stroke-width: 1.0;"/><text fill="#000000" font-family="sans-serif" font-size="11" font-style="italic" lengthAdjust="spacingAndGlyphs" textLength="637" x="52.5" y="108.0151">requestContentDirectUrl(nodeRef: NodeRef, attachment: boolean, validForOp: Optional&lt;Long&gt;): DirectAccessUrl</text><!--MD5=[63a22d4aa98d5b10b5c4ec531ce922b4]
class Renditions--><rect codeLine="6" fill="#FEFECE" filter="url(#fwwjjgge98hvi)" height="73.6094" id="Renditions" style="stroke: #A80036; stroke-width: 1.5;" width="873" x="730.5" y="41"/><ellipse cx="1131.25" cy="57" fill="#B4A7E5" rx="11" ry="11" style="stroke: #A80036; stroke-width: 1.0;"/><path d="M1132.2031,53.7813 L1133.9219,53.7813 C1134.3125,53.7813 1134.5,53.75 1134.625,53.6719 C1134.8906,53.5156 1135.0313,53.2344 1135.0313,52.9375 C1135.0313,52.6719 1134.9219,52.4063 1134.6875,52.2344 C1134.5156,52.125 1134.375,52.0938 1133.9219,52.0938 L1128.7813,52.0938 C1128.3438,52.0938 1128.2188,52.1094 1128.0625,52.2031 C1127.8125,52.3594 1127.6563,52.6563 1127.6563,52.9375 C1127.6563,53.2188 1127.7969,53.4688 1128.0156,53.6406 C1128.1719,53.75 1128.3594,53.7813 1128.7813,53.7813 L1130.5,53.7813 L1130.5,60.2969 L1128.7813,60.2969 C1128.3438,60.2969 1128.2188,60.3125 1128.0625,60.4219 C1127.8125,60.5781 1127.6563,60.8594 1127.6563,61.1563 C1127.6563,61.4063 1127.7969,61.6719 1128.0156,61.8281 C1128.1719,61.9531 1128.375,62 1128.7813,62 L1133.9219,62 C1134.6719,62 1135.0313,61.7188 1135.0313,61.1563 C1135.0313,60.875 1134.9219,60.625 1134.6875,60.4531 C1134.5156,60.3281 1134.375,60.2969 1133.9219,60.2969 L1132.2031,60.2969 L1132.2031,53.7813 Z " fill="#000000"/><text fill="#000000" font-family="sans-serif" font-size="12" font-style="italic" lengthAdjust="spacingAndGlyphs" textLength="63" x="1151.75" y="61.1543">Renditions</text><line style="stroke: #A80036; stroke-width: 1.5;" x1="731.5" x2="1602.5" y1="73" y2="73"/><line style="stroke: #A80036; stroke-width: 1.5;" x1="731.5" x2="1602.5" y1="81" y2="81"/><ellipse cx="741.5" cy="92" fill="#84BE84" rx="3" ry="3" style="stroke: #038048; stroke-width: 1.0;"/><text fill="#000000" font-family="sans-serif" font-size="11" lengthAdjust="spacingAndGlyphs" textLength="818" x="750.5" y="95.2104">requestContentDirectUrl(nodeId: String, versionId: String, renditionId: String, attachment: boolean, validForOp: Optional&lt;Long&gt;): DirectAccessUrl</text><ellipse cx="741.5" cy="104.8047" fill="#84BE84" rx="3" ry="3" style="stroke: #038048; stroke-width: 1.0;"/><text fill="#000000" font-family="sans-serif" font-size="11" font-style="italic" lengthAdjust="spacingAndGlyphs" textLength="847" x="750.5" y="108.0151">requestContentDirectUrl(nodeRef: NodeRef, versionId: String, renditionId: String, attachment: boolean, validForOp: Optional&lt;Long&gt;): DirectAccessUrl</text><!--MD5=[1847e511f82ad691a2cbe6d69a1c9b9f]
class NodesImpl--><rect codeLine="13" fill="#FEFECE" filter="url(#fwwjjgge98hvi)" height="60.8047" id="NodesImpl" style="stroke: #A80036; stroke-width: 1.5;" width="663" x="33.5" y="190"/><ellipse cx="328.75" cy="206" fill="#ADD1B2" rx="11" ry="11" style="stroke: #A80036; stroke-width: 1.0;"/><path d="M331.0938,201.6719 C330.1563,201.2344 329.5625,201.0938 328.6875,201.0938 C326.0625,201.0938 324.0625,203.1719 324.0625,205.8906 L324.0625,207.0156 C324.0625,209.5938 326.1719,211.4844 329.0625,211.4844 C330.2813,211.4844 331.4375,211.1875 332.1875,210.6406 C332.7656,210.2344 333.0938,209.7813 333.0938,209.3906 C333.0938,208.9375 332.7031,208.5469 332.2344,208.5469 C332.0156,208.5469 331.8125,208.625 331.625,208.8125 C331.1719,209.2969 331.1719,209.2969 330.9844,209.3906 C330.5625,209.6563 329.875,209.7813 329.1094,209.7813 C327.0625,209.7813 325.7656,208.6875 325.7656,206.9844 L325.7656,205.8906 C325.7656,204.1094 327.0156,202.7969 328.75,202.7969 C329.3281,202.7969 329.9375,202.9531 330.4063,203.2031 C330.8906,203.4844 331.0625,203.7031 331.1563,204.1094 C331.2188,204.5156 331.25,204.6406 331.3906,204.7656 C331.5313,204.9063 331.7656,205.0156 331.9844,205.0156 C332.25,205.0156 332.5156,204.875 332.6875,204.6563 C332.7969,204.5 332.8281,204.3125 332.8281,203.8906 L332.8281,202.4688 C332.8281,202.0313 332.8125,201.9063 332.7188,201.75 C332.5625,201.4844 332.2813,201.3438 331.9844,201.3438 C331.6875,201.3438 331.4844,201.4375 331.2656,201.75 L331.0938,201.6719 Z " fill="#000000"/><text fill="#000000" font-family="sans-serif" font-size="12" lengthAdjust="spacingAndGlyphs" textLength="64" x="349.25" y="210.1543">NodesImpl</text><line style="stroke: #A80036; stroke-width: 1.5;" x1="34.5" x2="695.5" y1="222" y2="222"/><line style="stroke: #A80036; stroke-width: 1.5;" x1="34.5" x2="695.5" y1="230" y2="230"/><ellipse cx="44.5" cy="241" fill="#84BE84" rx="3" ry="3" style="stroke: #038048; stroke-width: 1.0;"/><text fill="#000000" font-family="sans-serif" font-size="11" lengthAdjust="spacingAndGlyphs" textLength="637" x="53.5" y="244.2104">requestContentDirectUrl(nodeRef: NodeRef, attachment: boolean, validForOp: Optional&lt;Long&gt;): DirectAccessUrl</text><!--MD5=[4f04d56be6d03da481780b616265d30f]
class RenditionsImpl--><rect codeLine="17" fill="#FEFECE" filter="url(#fwwjjgge98hvi)" height="60.8047" id="RenditionsImpl" style="stroke: #A80036; stroke-width: 1.5;" width="869" x="731.5" y="190"/><ellipse cx="1118.25" cy="206" fill="#ADD1B2" rx="11" ry="11" style="stroke: #A80036; stroke-width: 1.0;"/><path d="M1120.5938,201.6719 C1119.6563,201.2344 1119.0625,201.0938 1118.1875,201.0938 C1115.5625,201.0938 1113.5625,203.1719 1113.5625,205.8906 L1113.5625,207.0156 C1113.5625,209.5938 1115.6719,211.4844 1118.5625,211.4844 C1119.7813,211.4844 1120.9375,211.1875 1121.6875,210.6406 C1122.2656,210.2344 1122.5938,209.7813 1122.5938,209.3906 C1122.5938,208.9375 1122.2031,208.5469 1121.7344,208.5469 C1121.5156,208.5469 1121.3125,208.625 1121.125,208.8125 C1120.6719,209.2969 1120.6719,209.2969 1120.4844,209.3906 C1120.0625,209.6563 1119.375,209.7813 1118.6094,209.7813 C1116.5625,209.7813 1115.2656,208.6875 1115.2656,206.9844 L1115.2656,205.8906 C1115.2656,204.1094 1116.5156,202.7969 1118.25,202.7969 C1118.8281,202.7969 1119.4375,202.9531 1119.9063,203.2031 C1120.3906,203.4844 1120.5625,203.7031 1120.6563,204.1094 C1120.7188,204.5156 1120.75,204.6406 1120.8906,204.7656 C1121.0313,204.9063 1121.2656,205.0156 1121.4844,205.0156 C1121.75,205.0156 1122.0156,204.875 1122.1875,204.6563 C1122.2969,204.5 1122.3281,204.3125 1122.3281,203.8906 L1122.3281,202.4688 C1122.3281,202.0313 1122.3125,201.9063 1122.2188,201.75 C1122.0625,201.4844 1121.7813,201.3438 1121.4844,201.3438 C1121.1875,201.3438 1120.9844,201.4375 1120.7656,201.75 L1120.5938,201.6719 Z " fill="#000000"/><text fill="#000000" font-family="sans-serif" font-size="12" lengthAdjust="spacingAndGlyphs" textLength="87" x="1138.75" y="210.1543">RenditionsImpl</text><line style="stroke: #A80036; stroke-width: 1.5;" x1="732.5" x2="1599.5" y1="222" y2="222"/><line style="stroke: #A80036; stroke-width: 1.5;" x1="732.5" x2="1599.5" y1="230" y2="230"/><ellipse cx="742.5" cy="241" fill="#84BE84" rx="3" ry="3" style="stroke: #038048; stroke-width: 1.0;"/><text fill="#000000" font-family="sans-serif" font-size="11" lengthAdjust="spacingAndGlyphs" textLength="843" x="751.5" y="244.2104">requestContentDirectUrl(nodeRef: NodeRef, versionId: String, renditionId: String, attachment: boolean, validForOp: Optional&lt;Long&gt;): DirectAccessUrl</text><!--MD5=[9e00a2af987340d21701323aca590bbc]
reverse link Nodes to NodesImpl--><path codeLine="21" d="M364.401,135.285 C364.533,153.861 364.675,173.793 364.787,189.6015 " fill="none" id="Nodes-backto-NodesImpl" style="stroke: #A80036; stroke-width: 1.0;"/><polygon fill="none" points="357.4,135.232,364.258,115.182,371.4,135.132,357.4,135.232" style="stroke: #A80036; stroke-width: 1.0;"/><!--MD5=[8d172f9269c913dc54f9fe5b4cfc776f]
reverse link Renditions to RenditionsImpl--><path codeLine="22" d="M1166.6,135.285 C1166.47,153.861 1166.33,173.793 1166.21,189.6015 " fill="none" id="Renditions-backto-RenditionsImpl" style="stroke: #A80036; stroke-width: 1.0;"/><polygon fill="none" points="1159.6,135.132,1166.74,115.182,1173.6,135.232,1159.6,135.132" style="stroke: #A80036; stroke-width: 1.0;"/><!--MD5=[5e5d0275b82dfffb124ab9e273fe4acd]
link Nodes to Renditions--><!--MD5=[234dd300bcd7cd41980bc7ecba69f674]
@startuml
package org.alfresco.rest.api {
    interface Nodes {
        +requestContentDirectUrl(nodeId: String, attachment: boolean, validForOp: Optional<Long>): DirectAccessUrl
        {abstract} +requestContentDirectUrl(nodeRef: NodeRef, attachment: boolean, validForOp: Optional<Long>): DirectAccessUrl
    }
    interface Renditions {
        +requestContentDirectUrl(nodeId: String, versionId: String, renditionId: String, attachment: boolean, validForOp: Optional<Long>): DirectAccessUrl
        {abstract} +requestContentDirectUrl(nodeRef: NodeRef, versionId: String, renditionId: String, attachment: boolean, validForOp: Optional<Long>): DirectAccessUrl
    }
}

package org.alfresco.rest.api.impl {
    class NodesImpl {
        +requestContentDirectUrl(nodeRef: NodeRef, attachment: boolean, validForOp: Optional<Long>): DirectAccessUrl
    }

    class RenditionsImpl {
        +requestContentDirectUrl(nodeRef: NodeRef, versionId: String, renditionId: String, attachment: boolean, validForOp: Optional<Long>): DirectAccessUrl
    }
}
Nodes <|- - NodesImpl
Renditions <|- - RenditionsImpl
Nodes -[hidden]> Renditions
@enduml

PlantUML version 1.2020.20beta13(Unknown compile time)
(GPL source distribution)
Java Runtime: Java(TM) SE Runtime Environment
JVM: Java HotSpot(TM) 64-Bit Server VM
Default Encoding: UTF-8
Language: en
Country: US
--></g></svg>